<svg width="100" height="100" viewBox="0 0 100 100" fill="none" xmlns="http://www.w3.org/2000/svg">
<path d="M96.875 50.0003C96.875 24.1301 75.8706 3.12535 50.0018 3.12476C24.1329 3.12476 3.12858 24.1301 3.12858 50.0015C3.14393 58.2805 5.39195 66.3822 9.55991 73.5238L3.20792 92.5868C2.80067 93.8086 3.96266 94.9708 5.18424 94.5639L23.4151 88.4883C31.2291 93.8978 40.4814 96.8612 50.0003 96.8754C75.8706 96.8748 96.875 75.87 96.875 50.0003ZM93.7494 49.9998C93.7494 74.1805 74.1827 93.7484 50.0033 93.749C40.854 93.749 31.94 90.8547 24.5137 85.5108C24.1066 85.2155 23.5837 85.1387 23.1077 85.2982L7.16094 90.6125L12.7317 73.8923C12.8762 73.4553 12.8225 72.981 12.5848 72.5889C8.4574 65.7769 6.26798 57.9675 6.25268 50.0003C6.25423 25.819 25.8227 6.25054 50.0018 6.25113C74.1818 6.25113 93.7493 25.819 93.7494 49.9998ZM34.3389 45.3125C31.7686 45.3125 29.6519 47.4297 29.6519 49.9998C29.6519 52.5704 31.7686 54.687 34.3389 54.687C36.9091 54.687 39.0258 52.5704 39.0258 49.9998C39.0258 47.4297 36.9091 45.3125 34.3389 45.3125ZM50.0018 45.3125C47.4315 45.3125 45.3148 47.4297 45.3148 49.9998C45.3149 52.5704 47.4316 54.687 50.0018 54.687C52.572 54.687 54.6887 52.5704 54.6887 49.9998C54.6888 47.4297 52.572 45.3125 50.0018 45.3125ZM65.5881 45.3125C63.0178 45.3125 60.8996 47.4297 60.8996 49.9998C60.8996 52.5704 63.0178 54.687 65.5881 54.687C68.1583 54.687 70.275 52.5704 70.275 49.9998C70.275 47.4297 68.1583 45.3125 65.5881 45.3125ZM34.3389 48.4372C35.2203 48.4372 35.9017 49.1187 35.9017 49.9998C35.9017 50.8815 35.2203 51.5629 34.3389 51.5629C33.4574 51.5629 32.776 50.8815 32.776 49.9998C32.776 49.1187 33.4574 48.4372 34.3389 48.4372ZM50.0018 48.4372C50.8832 48.4372 51.5631 49.1187 51.5631 49.9998C51.5631 50.8815 50.8832 51.5629 50.0018 51.5629C49.1204 51.5629 48.439 50.8815 48.439 49.9998C48.439 49.1187 49.1204 48.4372 50.0018 48.4372ZM65.5881 48.4372C66.4695 48.4372 67.1494 49.1187 67.1493 49.9998C67.1493 50.8815 66.4695 51.5629 65.5881 51.5629C64.7066 51.5629 64.0252 50.8815 64.0252 49.9998C64.0252 49.1187 64.7066 48.4372 65.5881 48.4372Z" fill="#E5B8F4"/>
</svg>
