<svg width="50" height="50" viewBox="0 0 50 50" fill="none" xmlns="http://www.w3.org/2000/svg">
<rect width="50" height="50" rx="25" fill="url(#paint0_linear_5209_14661)"/>
<path d="M25.5789 23.3748L29.7894 19.2107M32.3521 23.5208L30.6357 28.6701C29.4255 32.3008 28.8204 34.1161 27.933 34.6319C27.0889 35.1227 26.0463 35.1227 25.2022 34.6319C24.3148 34.1161 23.7097 32.3008 22.4995 28.6701C22.3052 28.0872 22.208 27.7957 22.0449 27.5521C21.8869 27.316 21.684 27.1131 21.4479 26.9551C21.2043 26.792 20.9128 26.6948 20.3299 26.5005C16.6992 25.2903 14.8839 24.6852 14.3681 23.7978C13.8773 22.9537 13.8773 21.9111 14.3681 21.067C14.8839 20.1796 16.6992 19.5745 20.3299 18.3643L25.4792 16.6479C29.9776 15.1484 32.2268 14.3987 33.414 15.586C34.6013 16.7732 33.8516 19.0224 32.3521 23.5208Z" stroke="#6D0094" stroke-width="1.5" stroke-linecap="round"/>
<defs>
<linearGradient id="paint0_linear_5209_14661" x1="25" y1="0" x2="25" y2="50" gradientUnits="userSpaceOnUse">
<stop stop-color="#FABD05"/>
<stop offset="1" stop-color="#FA8905"/>
</linearGradient>
</defs>
</svg>
