<svg width="24" height="24" viewBox="0 0 24 24" fill="none" xmlns="http://www.w3.org/2000/svg">
<path d="M2 3L2.26121 3.09184C3.5628 3.54945 4.2136 3.77825 4.58584 4.32297C4.95808 4.86769 4.95808 5.59124 4.95808 7.03833V9.75995C4.95808 12.7015 5.02132 13.6723 5.88772 14.5861C6.75412 15.4999 8.14857 15.4999 10.9375 15.4999H16.2404C17.8014 15.4999 18.5819 15.4999 19.1336 15.0503C19.6853 14.6007 19.8429 13.8363 20.158 12.3074L20.6578 9.8827C21.0049 8.14366 21.1784 7.27414 20.7345 6.69706C20.2906 6.11998 18.7738 6.11998 17.0888 6.11998H4.95808M11.0476 9.3H8.33333M16.5 18C17.3284 18 18 18.6716 18 19.5C18 20.3284 17.3284 21 16.5 21C15.6716 21 15 20.3284 15 19.5C15 18.6716 15.6716 18 16.5 18ZM7.5 17.9999C8.32843 17.9999 9 18.6715 9 19.4999C9 20.3284 8.32843 20.9999 7.5 20.9999C6.67157 20.9999 6 20.3284 6 19.4999C6 18.6715 6.67157 17.9999 7.5 17.9999Z" stroke="black" stroke-width="1.5" stroke-linecap="round" stroke-linejoin="round"/>
</svg>
