<svg width="24" height="24" viewBox="0 0 24 24" fill="none" xmlns="http://www.w3.org/2000/svg">
<path fill-rule="evenodd" clip-rule="evenodd" d="M1.91122 2.03907C1.5554 1.91388 1.165 2.09953 1.03924 2.45373C0.913482 2.80794 1.09998 3.19656 1.4558 3.32175L1.71884 3.4143C2.38956 3.65028 2.83598 3.80853 3.16568 3.97042C3.47731 4.12344 3.62387 4.25182 3.72235 4.39603C3.82302 4.54345 3.89569 4.74034 3.93607 5.11364C3.97808 5.50202 3.979 6.00608 3.979 6.75002V9.49272C3.979 10.9584 3.99295 12.0066 4.12961 12.805C4.2746 13.6522 4.56252 14.2542 5.10136 14.8229C5.68377 15.4377 6.4241 15.7085 7.31863 15.8354C8.17804 15.9574 9.27144 15.9574 10.6306 15.9574H16.066C16.8159 15.9574 17.4407 15.9574 17.945 15.8956C18.4777 15.8304 18.9552 15.6888 19.3703 15.3503C19.785 15.0121 20.0193 14.5737 20.1903 14.066C20.3523 13.5848 20.4783 12.973 20.6297 12.2376L21.1415 9.75305L21.1519 9.70082C21.3185 8.86568 21.4571 8.17075 21.4915 7.61383C21.5274 7.03171 21.4602 6.47175 21.092 5.99272C20.8677 5.70088 20.5497 5.53273 20.2533 5.42851C19.9516 5.32244 19.6084 5.2604 19.2587 5.22128C18.5706 5.14431 17.7333 5.14432 16.907 5.14433L5.31126 5.14433C5.30649 5.08394 5.30106 5.02517 5.29487 4.96799C5.24154 4.4749 5.12679 4.03275 4.8526 3.63123C4.57623 3.2265 4.20769 2.96512 3.77025 2.75033C3.35906 2.54842 2.83515 2.36411 2.21159 2.14474L1.91122 2.03907ZM8.06124 8.34897C7.68385 8.34897 7.37791 8.65352 7.37791 9.0292C7.37791 9.40487 7.68385 9.70942 8.06124 9.70942H10.7946C11.1719 9.70942 11.4779 9.40487 11.4779 9.0292C11.4779 8.65352 11.1719 8.34897 10.7946 8.34897H8.06124Z" fill="black"/>
<path fill-rule="evenodd" clip-rule="evenodd" d="M7.22206 17.1163C6.00704 17.1163 5.02822 18.101 5.02822 19.3081C5.02822 20.5152 6.00704 21.4999 7.22206 21.4999C8.43709 21.4999 9.41591 20.5152 9.41591 19.3081C9.41591 18.101 8.43709 17.1163 7.22206 17.1163ZM6.39488 19.3081C6.39488 18.8455 6.76862 18.4767 7.22206 18.4767C7.67551 18.4767 8.04925 18.8455 8.04925 19.3081C8.04925 19.7706 7.67551 20.1395 7.22206 20.1395C6.76862 20.1395 6.39488 19.7706 6.39488 19.3081Z" fill="black"/>
<path fill-rule="evenodd" clip-rule="evenodd" d="M14.0913 19.3082C14.0913 18.101 15.0701 17.1163 16.2851 17.1163C17.5002 17.1163 18.479 18.101 18.479 19.3082C18.479 20.5153 17.5002 21.5 16.2851 21.5C15.0701 21.5 14.0913 20.5153 14.0913 19.3082ZM16.2851 18.4768C15.8317 18.4768 15.458 18.8456 15.458 19.3082C15.458 19.7707 15.8317 20.1396 16.2851 20.1396C16.7386 20.1396 17.1123 19.7707 17.1123 19.3082C17.1123 18.8456 16.7386 18.4768 16.2851 18.4768Z" fill="black"/>
</svg>
