<svg width="24" height="24" viewBox="0 0 24 24" fill="none" xmlns="http://www.w3.org/2000/svg">
<path fill-rule="evenodd" clip-rule="evenodd" d="M22.75 12C22.75 6.06294 17.9371 1.25 12 1.25C6.06294 1.25 1.25 6.06294 1.25 12C1.25 13.7183 1.65371 15.3445 2.37213 16.7869C2.47933 17.0021 2.50208 17.2219 2.4526 17.4068L1.857 19.6328C1.44927 21.1566 2.84337 22.5507 4.3672 22.143L6.59324 21.5474C6.77814 21.4979 6.99791 21.5207 7.21315 21.6279C8.65553 22.3463 10.2817 22.75 12 22.75C17.9371 22.75 22.75 17.9371 22.75 12ZM9 12C9 12.5523 8.55228 13 8 13C7.44772 13 7 12.5523 7 12C7 11.4477 7.44772 11 8 11C8.55228 11 9 11.4477 9 12ZM13 12C13 12.5523 12.5523 13 12 13C11.4477 13 11 12.5523 11 12C11 11.4477 11.4477 11 12 11C12.5523 11 13 11.4477 13 12ZM16 13C16.5523 13 17 12.5523 17 12C17 11.4477 16.5523 11 16 11C15.4477 11 15 11.4477 15 12C15 12.5523 15.4477 13 16 13Z" fill="black"/>
</svg>
