<svg width="24" height="24" viewBox="0 0 24 24" fill="none" xmlns="http://www.w3.org/2000/svg">
<path d="M18 9C19.6569 9 21 7.88071 21 6.5C21 5.11929 19.6569 4 18 4M20 19C21.7542 18.6153 23 17.6411 23 16.5C23 15.3589 21.7542 14.3847 20 14M4 19C2.24575 18.6153 1 17.6411 1 16.5C1 15.3589 2.24575 14.3847 4 14M6 9C4.34315 9 3 7.88071 3 6.5C3 5.11929 4.34315 4 6 4M16 6C16 8.20914 14.2091 10 12 10C9.79086 10 8 8.20914 8 6C8 3.79086 9.79086 2 12 2C14.2091 2 16 3.79086 16 6ZM18 17C18 19.2091 15.3137 21 12 21C8.68629 21 6 19.2091 6 17C6 14.7909 8.68629 13 12 13C15.3137 13 18 14.7909 18 17Z" stroke="black" stroke-width="1.5" stroke-linecap="round"/>
</svg>
