<svg width="24" height="24" viewBox="0 0 24 24" fill="none" xmlns="http://www.w3.org/2000/svg">
<path fill-rule="evenodd" clip-rule="evenodd" d="M9.94358 1.75H14.0564C15.8942 1.74999 17.3498 1.74997 18.489 1.90314C19.6614 2.06076 20.6104 2.39288 21.3588 3.14124C22.1071 3.88961 22.4392 4.83856 22.5969 6.01098C22.75 7.15018 22.75 8.60585 22.75 10.4436V11.0565C22.75 12.8942 22.75 14.3498 22.5969 15.489C22.4392 16.6614 22.1071 17.6104 21.3588 18.3588C20.6104 19.1071 19.6614 19.4392 18.489 19.5969C17.3498 19.75 15.8942 19.75 14.0564 19.75H14.0084C13.4822 19.7621 13.0924 19.8018 12.7222 19.8861C11.8085 20.0965 10.9555 20.5206 10.0274 20.982C9.84775 21.0713 9.66482 21.1622 9.47858 21.253L9.42582 21.2787C8.68964 21.6378 8.06413 21.9428 7.5611 22.1052C7.05474 22.2687 6.42468 22.3718 5.8745 21.9716L5.86769 21.9667C5.30749 21.5494 5.16499 20.9085 5.15188 20.3893C5.14556 20.1392 5.16769 19.8805 5.20557 19.6261C4.16655 19.4182 3.29381 19.0113 2.64124 18.3588C1.89288 17.6104 1.56076 16.6614 1.40314 15.489C1.24997 14.3498 1.24999 12.8942 1.25 11.0564V10.4436C1.24999 8.60582 1.24997 7.15019 1.40314 6.01098C1.56076 4.83856 1.89288 3.88961 2.64124 3.14124C3.38961 2.39288 4.33856 2.06076 5.51098 1.90314C6.65019 1.74997 8.10583 1.74999 9.94358 1.75ZM8 7.75C7.58579 7.75 7.25 8.08579 7.25 8.5C7.25 8.91421 7.58579 9.25 8 9.25H12C12.4142 9.25 12.75 8.91421 12.75 8.5C12.75 8.08579 12.4142 7.75 12 7.75H8ZM8 12.75C7.58579 12.75 7.25 13.0858 7.25 13.5C7.25 13.9142 7.58579 14.25 8 14.25H16C16.4142 14.25 16.75 13.9142 16.75 13.5C16.75 13.0858 16.4142 12.75 16 12.75H8Z" fill="black"/>
</svg>
