<svg width="24" height="24" viewBox="0 0 24 24" fill="none" xmlns="http://www.w3.org/2000/svg">
<path d="M5.00076 3.05987C7.09896 2.10078 9.68795 2.39015 12 4.45873C14.3121 2.39015 16.901 2.10078 18.9992 3.05987C21.2153 4.07283 22.75 6.42494 22.75 9.13701C22.75 11.8025 21.6395 13.836 20.1833 15.4757C19.0171 16.7888 17.5898 17.8879 16.3292 18.8585L16.3292 18.8585L16.3289 18.8587C16.0432 19.0787 15.7661 19.292 15.5026 19.4998C14.9903 19.9036 14.4405 20.3342 13.8832 20.6598C13.3261 20.9853 12.6904 21.2499 12 21.2499C11.3096 21.2499 10.6739 20.9853 10.1168 20.6598C9.55954 20.3342 9.00965 19.9036 8.49742 19.4998C8.23379 19.292 7.95661 19.0785 7.67086 18.8585L7.67083 18.8585C6.41022 17.8879 4.98287 16.7888 3.81672 15.4757C2.3605 13.836 1.25 11.8025 1.25 9.13701C1.25 6.42494 2.78471 4.07283 5.00076 3.05987Z" fill="black"/>
</svg>
