<svg width="24" height="24" viewBox="0 0 24 24" fill="none" xmlns="http://www.w3.org/2000/svg">
<path d="M10 18H14M7.02099 4.6L5.58114 5.64106C3.65403 7.03443 2.69047 7.73112 2.25617 8.74938C1.82186 9.76763 1.99837 10.9162 2.35139 13.2135L2.65243 15.1724C3.15287 18.4289 3.40309 20.0572 4.571 21.0286C5.73891 22 7.44633 22 10.8612 22H13.1388C16.5537 22 18.2611 22 19.429 21.0286C20.5969 20.0572 20.8471 18.4289 21.3476 15.1724L21.6486 13.2135C22.0016 10.9162 22.1781 9.76763 21.7438 8.74938C21.3095 7.73112 20.346 7.03443 18.4189 5.64106L16.979 4.6C14.5817 2.86667 13.3831 2 12 2C10.6169 2 9.41829 2.86667 7.02099 4.6Z" stroke="black" stroke-width="1.5" stroke-linecap="round"/>
</svg>
