<svg width="24" height="24" viewBox="0 0 24 24" fill="none" xmlns="http://www.w3.org/2000/svg">
<path fill-rule="evenodd" clip-rule="evenodd" d="M9.52381 1.74594C10.3597 1.27688 11.1339 1 12 1C12.8661 1 13.6403 1.27688 14.4762 1.74594C15.2861 2.20043 16.2141 2.87145 17.3811 3.71522L18.8902 4.80633C19.8267 5.48347 20.5747 6.0243 21.1389 6.52487C21.7215 7.04173 22.1573 7.557 22.4337 8.20513C22.7108 8.85469 22.7778 9.52045 22.7406 10.2881C22.7047 11.0289 22.5674 11.9226 22.3961 13.0371L22.0808 15.0887C21.8374 16.6725 21.6437 17.9337 21.359 18.9162C21.0646 19.9321 20.6499 20.7387 19.9086 21.3552C19.1704 21.9692 18.2911 22.2426 17.2169 22.3731C16.172 22.5 14.8539 22.5 13.1889 22.5H10.8111C9.14615 22.5 7.828 22.5 6.78306 22.3731C5.7089 22.2426 4.82957 21.9692 4.0914 21.3552C3.35016 20.7387 2.93544 19.9321 2.64105 18.9162C2.35635 17.9336 2.16256 16.6725 1.91918 15.0887L1.60393 13.0372C1.43264 11.9227 1.29528 11.0289 1.25941 10.2881C1.22225 9.52045 1.28925 8.85469 1.5663 8.20513C1.84274 7.557 2.27855 7.04173 2.86109 6.52487C3.42528 6.02429 4.1733 5.48346 5.10984 4.80632L6.61887 3.71524C7.78586 2.87145 8.7139 2.20043 9.52381 1.74594ZM10 17C9.58579 17 9.25 17.3358 9.25 17.75C9.25 18.1642 9.58579 18.5 10 18.5H14C14.4142 18.5 14.75 18.1642 14.75 17.75C14.75 17.3358 14.4142 17 14 17H10Z" fill="black"/>
</svg>
