<svg width="24" height="24" viewBox="0 0 24 24" fill="none" xmlns="http://www.w3.org/2000/svg">
<path fill-rule="evenodd" clip-rule="evenodd" d="M5.41998 1.01512C5.58534 0.999946 5.77237 0.999969 6.0436 1H17.4564C17.7276 0.999969 17.9147 0.999945 18.08 1.01512C19.9182 1.18385 21.331 2.70266 21.486 4.5609C21.5 4.7294 21.5 4.92111 21.5 5.20924L21.5 20.0098C21.5 20.7816 21.0176 21.3651 20.4059 21.5791C19.7893 21.7947 19.0404 21.6318 18.5822 20.9907C18.5655 20.9673 18.5498 20.9564 18.5386 20.9506C18.5263 20.9444 18.5132 20.9414 18.5 20.9414C18.4868 20.9414 18.4737 20.9444 18.4615 20.9506C18.4502 20.9564 18.4345 20.9673 18.4178 20.9907L17.9851 21.596C17.1235 22.8013 15.3765 22.8013 14.5149 21.596C14.2515 21.2276 13.7485 21.2276 13.4851 21.596C12.6235 22.8013 10.8765 22.8013 10.0149 21.596C9.7515 21.2276 9.24851 21.2276 8.98514 21.596C8.12351 22.8013 6.3765 22.8013 5.51486 21.596L5.08217 20.9907C5.06546 20.9673 5.04981 20.9564 5.03856 20.9506C5.02631 20.9444 5.0132 20.9414 5 20.9414C4.98681 20.9414 4.9737 20.9444 4.96145 20.9506C4.9502 20.9564 4.93455 20.9673 4.91784 20.9907C4.45958 21.6318 3.71074 21.7947 3.09414 21.5791C2.48237 21.3651 2 20.7816 2 20.0098L2 5.20925C1.99998 4.92098 1.99996 4.72945 2.01401 4.5609C2.16897 2.70266 3.58179 1.18385 5.41998 1.01512ZM9.21967 7.2197C9.51256 6.92681 9.98744 6.92681 10.2803 7.2197L11.75 8.68938L13.2197 7.21972C13.5126 6.92682 13.9874 6.92682 14.2803 7.21972C14.5732 7.51261 14.5732 7.98748 14.2803 8.28038L12.8107 9.75004L14.2803 11.2197C14.5732 11.5126 14.5732 11.9875 14.2803 12.2803C13.9874 12.5732 13.5125 12.5732 13.2197 12.2803L11.75 10.8107L10.2803 12.2804C9.98745 12.5733 9.51258 12.5733 9.21969 12.2804C8.92679 11.9875 8.92679 11.5126 9.21969 11.2197L10.6893 9.75004L9.21967 8.28036C8.92678 7.98747 8.92678 7.51259 9.21967 7.2197ZM6.5 15.25C6.5 14.8358 6.83579 14.5 7.25 14.5H16.25C16.6642 14.5 17 14.8358 17 15.25C17 15.6642 16.6642 16 16.25 16H7.25C6.83579 16 6.5 15.6642 6.5 15.25Z" fill="black"/>
</svg>
