<svg width="24" height="24" viewBox="0 0 24 24" fill="none" xmlns="http://www.w3.org/2000/svg">
<path d="M10.1058 9.36839C10.1058 8.33024 10.9488 7.48682 11.9911 7.48682C13.0333 7.48682 13.8764 8.33023 13.8764 9.36839C13.8764 10.4066 13.0333 11.25 11.9911 11.25C10.9488 11.25 10.1058 10.4066 10.1058 9.36839Z" fill="black"/>
<path fill-rule="evenodd" clip-rule="evenodd" d="M11.9426 1.25H12.0574C14.3658 1.24999 16.1748 1.24998 17.5863 1.43975C19.031 1.63399 20.1711 2.03933 21.0659 2.93414C21.9607 3.82895 22.366 4.96897 22.5603 6.41371C22.75 7.82519 22.75 9.63423 22.75 11.9426V12.0574C22.75 14.3658 22.75 16.1748 22.5603 17.5863C22.366 19.031 21.9607 20.1711 21.0659 21.0659C20.1711 21.9607 19.031 22.366 17.5863 22.5603C16.1748 22.75 14.3658 22.75 12.0574 22.75H11.9426C9.63423 22.75 7.82519 22.75 6.41371 22.5603C4.96897 22.366 3.82895 21.9607 2.93414 21.0659C2.03933 20.1711 1.63399 19.031 1.43975 17.5863C1.24998 16.1748 1.24999 14.3658 1.25 12.0574V11.9426C1.24999 9.63422 1.24998 7.82519 1.43975 6.41371C1.63399 4.96897 2.03933 3.82895 2.93414 2.93414C3.82895 2.03933 4.96897 1.63399 6.41371 1.43975C7.82519 1.24998 9.63423 1.24999 11.9426 1.25ZM11.9911 5.98682C10.1224 5.98682 8.60575 7.49979 8.60575 9.36839C8.60575 11.237 10.1224 12.75 11.9911 12.75C13.8597 12.75 15.3764 11.237 15.3764 9.36839C15.3764 7.49979 13.8597 5.98682 11.9911 5.98682ZM7.80561 17.7811C9.97874 15.505 14.0152 15.4167 16.1853 17.7714C16.4661 18.076 16.9405 18.0953 17.2451 17.8146C17.5497 17.5339 17.5691 17.0594 17.2883 16.7549C14.4969 13.7261 9.45641 13.8799 6.7207 16.7452C6.43466 17.0448 6.44564 17.5196 6.74524 17.8056C7.04483 18.0916 7.51957 18.0806 7.80561 17.7811Z" fill="black"/>
</svg>
