<svg width="24" height="24" viewBox="0 0 24 24" fill="none" xmlns="http://www.w3.org/2000/svg">
<path d="M7.26315 17.2631C9.71758 14.6924 14.256 14.5714 16.7368 17.2631M12 22C7.28595 22 4.92893 22 3.46447 20.5355C2 19.0711 2 16.714 2 12C2 7.28595 2 4.92893 3.46447 3.46447C4.92893 2 7.28595 2 12 2C16.714 2 19.0711 2 20.5355 3.46447C22 4.92893 22 7.28595 22 12C22 16.714 22 19.0711 20.5355 20.5355C19.0711 22 16.714 22 12 22ZM14.6264 9.3684C14.6264 10.8218 13.4465 12 11.9911 12C10.5356 12 9.35575 10.8218 9.35575 9.3684C9.35575 7.91501 10.5356 6.73682 11.9911 6.73682C13.4465 6.73682 14.6264 7.91501 14.6264 9.3684Z" stroke="black" stroke-width="1.5" stroke-linecap="round"/>
</svg>
