<svg preserveAspectRatio="none" width="100%" height="100%" overflow="visible" style="display: block;" viewBox="0 0 18.5748 37.9996" fill="none" xmlns="http://www.w3.org/2000/svg">
<g id="Union">
<path d="M18.5593 0.645836C18.1394 1.90394 17.0147 2.63404 15.9585 3.31971C15.8086 3.41698 15.6602 3.51335 15.5153 3.6102C15.4885 3.62796 15.4426 3.65451 15.3869 3.68669C15.1879 3.80177 14.8646 3.9888 14.8451 4.10288C14.8331 4.17588 14.9107 4.30704 14.9872 4.43644C15.048 4.53935 15.1082 4.64114 15.1221 4.71168C15.1918 5.06833 15.1139 5.47807 14.9231 5.78496C14.7738 6.02549 14.5349 6.2146 14.2595 6.26271C14.2231 6.26935 14.1849 6.27266 14.1534 6.25773C14.0655 6.21626 14.0837 6.08687 14.1003 5.99066C14.2811 4.98373 13.0967 4.61049 12.3369 4.81453C10.9752 5.18007 9.55556 5.67173 8.89896 6.91254C8.87429 6.99763 8.85002 7.08238 8.82633 7.16674C8.81463 7.20902 8.7903 7.27861 8.76086 7.36284C8.71395 7.49701 8.65405 7.66836 8.61149 7.82568C8.59498 7.96973 8.59081 8.1143 8.5981 8.25781C8.66747 8.32843 8.83396 8.38426 8.99793 8.43924C9.14344 8.48804 9.28695 8.53616 9.35882 8.59336C9.72543 8.88532 9.98919 9.35643 10.0572 9.82422C10.1103 10.1908 10.0323 10.584 9.80173 10.8693C9.77022 10.9058 9.73538 10.9423 9.69059 10.9556C9.5695 10.9887 9.47826 10.8477 9.41522 10.7366C8.75334 9.58535 7.27365 10.2423 6.69305 11.0999C5.59489 12.7239 4.58299 14.3778 4.82021 16.8727C4.87495 17.4383 5.20838 18.0057 5.67949 18.3126C5.97975 18.51 6.36792 18.6194 6.72623 18.573C7.04141 18.5315 7.46276 18.2993 7.33503 17.9061C7.31114 17.8329 7.25862 17.7723 7.20673 17.7123C7.1469 17.6432 7.08791 17.5751 7.07459 17.4898C7.03311 17.236 7.40304 17.0867 7.58883 17.0419C7.83932 16.9822 8.11469 17.0104 8.33531 17.1481C8.93747 17.5229 9.00051 18.4718 8.5576 18.9927C8.36683 19.215 8.12961 19.3294 7.87415 19.3775L7.87747 19.3759C7.61869 19.4256 7.34 19.4091 7.07293 19.3709C6.48901 19.288 5.90841 19.0574 5.44228 18.6891C5.08312 18.4057 4.80281 18.0453 4.59529 17.6401C4.58838 17.6409 4.58097 17.641 4.57304 17.6402C3.42678 17.5258 3.03363 16.1937 3.06183 15.1951C3.08808 14.2742 3.30731 13.3712 3.52612 12.4699C3.6668 11.8905 3.8073 11.3117 3.89623 10.7295C4.11852 9.27132 4.22137 6.25719 1.96699 6.79964C1.74138 6.85438 1.5191 6.95059 1.35321 7.12145C1.10605 7.37526 0.792523 8.16321 1.67669 8.12672C1.77995 8.12205 1.87063 8.09037 1.96024 8.05906C2.09376 8.01241 2.22489 7.96659 2.39165 8.01226C2.53929 8.05207 2.672 8.14497 2.76158 8.2727C2.89594 8.46181 2.92746 8.77367 2.87604 8.99595C2.7848 9.3891 2.36511 9.68272 2.00182 9.78391C1.60204 9.89505 1.1641 9.82538 0.812429 9.60807C0.661474 9.51351 0.525448 9.39241 0.415964 9.25141C-0.360378 8.2561 0.0178398 6.793 0.989926 6.09463C2.00017 5.36971 3.48152 5.6965 4.09861 6.79632C4.50171 7.51626 4.48015 8.49166 4.45858 9.29288C4.4337 10.2252 4.26947 11.1326 4.08368 12.0433L4.06478 12.1351C3.85147 13.1711 3.63254 14.2345 3.74693 15.2963C3.80919 15.8594 3.94866 16.7458 4.39898 17.1859C4.16402 16.5324 4.08961 15.8035 4.15501 15.1093C4.32421 13.3227 5.14037 11.6622 6.12904 10.1726C6.58854 9.2768 6.92861 8.34287 6.95349 7.31106C6.96676 6.79184 6.9651 6.26267 6.86723 5.75175C6.78263 5.30884 6.21862 4.36661 5.59489 4.97209C5.49204 5.07162 5.33777 5.01024 5.34275 4.87919C5.36929 4.11944 5.78898 3.33646 6.64826 3.10422C6.87552 3.04284 7.11606 3.03289 7.34664 3.08265C7.4504 3.10495 7.54707 3.15606 7.64146 3.20597C7.72966 3.2526 7.81587 3.29819 7.90401 3.31822C8.01379 3.00991 8.19068 2.73087 8.36789 2.45132C8.512 2.22398 8.65633 1.99629 8.76495 1.75226C8.88273 1.48851 9.20123 1.21314 9.35716 1.60794C9.85898 2.87394 9.65259 4.19452 9.31239 5.47626C9.77859 5.10452 10.2977 4.80495 10.8442 4.55918C10.9883 4.46645 11.1297 4.3708 11.2664 4.26959C11.9864 3.7371 13.3234 2.47803 12.1141 1.71164C11.993 1.63533 11.857 1.57893 11.711 1.57893C11.4953 1.57893 11.0226 1.78131 11.4207 2.15787C11.4673 2.20183 11.5201 2.22841 11.5723 2.25468C11.65 2.29383 11.7264 2.3323 11.779 2.42661C11.8254 2.50956 11.842 2.60908 11.8271 2.70364C11.8039 2.84464 11.6844 2.99394 11.5667 3.06693C11.3577 3.19632 11.0508 3.13825 10.85 3.02047C10.6294 2.89108 10.4702 2.66714 10.4104 2.41665C10.3839 2.30883 10.3773 2.19603 10.3905 2.08654V2.08488C10.4818 1.30854 11.2714 0.84407 11.9913 0.97346C12.7395 1.10783 13.2404 1.90739 13.0364 2.65719C12.9037 3.14821 12.4774 3.55961 12.124 3.89801C12.0176 3.99975 11.9077 4.09667 11.7952 4.18988C12.0158 4.11602 12.2383 4.04867 12.4614 3.98676C13.1697 3.69978 13.8266 3.32986 14.3491 2.74096C14.6129 2.44403 14.8717 2.13549 15.0657 1.78879C15.235 1.48853 15.371 0.65248 14.7091 0.685657C14.5996 0.690634 14.5399 0.576167 14.6079 0.503178C14.9977 0.0735357 15.6264 -0.166993 16.2419 0.134918C16.4044 0.214543 16.5488 0.332314 16.6582 0.479952C16.708 0.546066 16.7392 0.625072 16.7696 0.702243C16.7979 0.774163 16.8256 0.844491 16.8673 0.901306C17.0828 0.777459 17.3243 0.704851 17.5661 0.63214C17.7615 0.573373 17.9572 0.514538 18.1396 0.428528C18.3387 0.333973 18.6588 0.335632 18.5543 0.645836H18.5593Z" fill="#FABD05"/>
<path d="M4.63711 19.9009C4.55748 20.0021 4.4845 20.105 4.41151 20.2128V20.2144C4.39847 20.2336 4.38397 20.2553 4.36813 20.2789C4.16226 20.5863 3.7315 21.2294 3.388 21.1616C3.28515 21.1417 3.19391 21.087 3.10433 21.0323C2.96125 20.9454 2.81817 20.8582 2.67509 20.7709L2.67418 20.7704C2.53069 20.6828 2.38689 20.5952 2.24339 20.5081C2.20074 20.4824 2.15834 20.4562 2.11592 20.43C2.00489 20.3614 1.89368 20.2927 1.77725 20.2327C1.7573 20.2223 1.73723 20.212 1.71714 20.2017C1.58357 20.1331 1.44891 20.064 1.33932 19.9573C1.26135 19.881 1.24145 19.8014 1.28623 19.7019C1.36457 19.5253 1.50908 19.4522 1.66038 19.3756C1.71091 19.3501 1.76226 19.3241 1.81209 19.2938L2.24339 19.0317C2.38688 18.9446 2.53037 18.8571 2.67386 18.7696C2.81735 18.6821 2.96084 18.5946 3.10433 18.5075C3.19391 18.4527 3.28515 18.398 3.388 18.3781C3.72748 18.3108 4.15437 18.9442 4.36327 19.2541C4.38097 19.2803 4.39712 19.3043 4.41151 19.3253C4.48947 19.4398 4.5691 19.5509 4.65536 19.6587C4.67526 19.6902 4.69517 19.7218 4.70678 19.7566C4.71176 19.7715 4.71176 19.7881 4.71176 19.803C4.68523 19.8345 4.65866 19.8661 4.63711 19.9009Z" fill="#FABD05"/>
<path fill-rule="evenodd" clip-rule="evenodd" d="M3.06183 24.2128C3.08808 25.1337 3.30731 26.0367 3.52612 26.938C3.6668 27.5175 3.8073 28.0962 3.89623 28.6785C4.11852 30.1366 4.22137 33.1507 1.96699 32.6083C1.74138 32.5535 1.5191 32.4573 1.35321 32.2865C1.10605 32.031 0.792523 31.243 1.67669 31.2812C1.78065 31.2852 1.87186 31.3172 1.96205 31.3488C2.09495 31.3953 2.22564 31.4411 2.39165 31.3957C2.54095 31.3542 2.672 31.2613 2.76158 31.1352C2.89594 30.9461 2.9258 30.6342 2.87604 30.412C2.7848 30.0172 2.36677 29.7235 2.00182 29.624C1.6037 29.5145 1.16576 29.5825 0.812429 29.7998C0.661474 29.8944 0.525448 30.0138 0.415964 30.1565C-0.360378 31.1535 0.0178397 32.6166 0.989926 33.3133C2.00017 34.0382 3.48152 33.7114 4.09861 32.6116C4.50337 31.8917 4.48015 30.9163 4.45858 30.115C4.4337 29.1828 4.26947 28.2754 4.08368 27.3647L4.0592 27.2449C3.8491 26.2177 3.63357 25.1639 3.74693 24.1117C3.80786 23.5477 3.94747 22.6594 4.40043 22.22C4.16433 22.8745 4.08947 23.605 4.15501 24.3006C4.32421 26.0872 5.14037 27.7477 6.12904 29.2373C6.58854 30.1331 6.92861 31.0671 6.95349 32.0989C6.96676 32.6181 6.9651 33.1473 6.86723 33.6582C6.78263 34.1011 6.21862 35.0433 5.59489 34.4378C5.49204 34.3383 5.33777 34.3997 5.34275 34.5307C5.36929 35.2905 5.78898 36.0735 6.64826 36.3057C6.87552 36.3671 7.11606 36.377 7.34664 36.3273C7.4504 36.305 7.54707 36.2539 7.64145 36.204C7.72966 36.1573 7.81587 36.1117 7.90401 36.0917C8.01379 36.4 8.19068 36.6791 8.36789 36.9586C8.512 37.1859 8.65633 37.4136 8.76495 37.6577C8.88273 37.9214 9.20123 38.1968 9.35716 37.802C9.55958 37.2913 9.64677 36.7718 9.65642 36.2495C9.92167 36.7766 10.5522 37.0631 11.1368 36.9581C11.885 36.8237 12.386 36.0241 12.1819 35.2743C12.0492 34.7833 11.6229 34.3719 11.2695 34.0335C11.1625 33.9312 11.052 33.8338 10.9388 33.7401C11.1602 33.8143 11.3835 33.8819 11.6074 33.944C12.3157 34.231 12.9726 34.6009 13.4951 35.1898C13.7589 35.4867 14.0177 35.7953 14.2117 36.142C14.3809 36.4422 14.517 37.2783 13.8551 37.2451C13.7456 37.2401 13.6859 37.3546 13.7539 37.4276C14.1437 37.8572 14.7724 38.0978 15.3879 37.7959C15.5504 37.7162 15.6964 37.5984 15.8042 37.4508C15.854 37.3847 15.8852 37.3057 15.9156 37.2285C15.9439 37.1566 15.9716 37.0863 16.0133 37.0295C16.2288 37.1533 16.4703 37.2259 16.7121 37.2986C16.9075 37.3574 17.1032 37.4162 17.2856 37.5022C17.4847 37.5968 17.8048 37.5951 17.7003 37.2849H17.7053C17.2854 36.0268 16.1607 35.2967 15.1044 34.6111C14.9546 34.5138 14.8062 34.4174 14.6613 34.3206C14.6345 34.3028 14.5886 34.2762 14.5329 34.2441C14.3339 34.129 14.0106 33.942 13.9911 33.8279C13.9791 33.7549 14.0567 33.6237 14.1332 33.4943C14.194 33.3914 14.2542 33.2896 14.2681 33.2191C14.3378 32.8624 14.2599 32.4527 14.0691 32.1458C13.9198 31.9053 13.6809 31.7162 13.4055 31.6681C13.369 31.6614 13.3309 31.6581 13.2994 31.673C13.2115 31.7145 13.2297 31.8439 13.2463 31.9401C13.4271 32.947 12.2427 33.3203 11.4829 33.1162C10.4713 32.8447 9.42782 32.5035 8.68887 31.8374C8.60193 31.5755 8.51866 31.2779 8.5775 31.1782C8.62748 31.0949 8.81429 31.0323 8.99793 30.9707C9.14344 30.9219 9.28695 30.8738 9.35882 30.8166C9.72543 30.5246 9.98919 30.0535 10.0572 29.5857C10.1103 29.2191 10.0323 28.826 9.80173 28.5406C9.77022 28.5041 9.73538 28.4676 9.69059 28.4544C9.5695 28.4212 9.47826 28.5622 9.41522 28.6733C8.94907 29.4841 8.07726 29.3981 7.39959 28.9767C7.34608 28.8847 7.29389 28.7921 7.24292 28.6987C7.22163 28.7403 7.20141 28.7824 7.18233 28.825C6.98844 28.6739 6.81944 28.4967 6.69305 28.31C5.59489 26.686 4.58299 25.0322 4.82021 22.5373C4.87495 21.9716 5.20838 21.4043 5.67949 21.0974C5.97975 20.9 6.36792 20.7905 6.72623 20.8369C7.04141 20.8784 7.46276 21.1106 7.33503 21.5038C7.31114 21.577 7.25862 21.6377 7.20673 21.6976C7.1469 21.7667 7.08791 21.8349 7.07459 21.9202C7.03311 22.174 7.40304 22.3233 7.58883 22.368C7.83932 22.4278 8.11469 22.3996 8.33531 22.2619C8.93748 21.887 9.00051 20.9381 8.5576 20.4172C8.36683 20.195 8.12961 20.0805 7.87415 20.0324L7.87747 20.034C7.61869 19.9843 7.34 20.0009 7.07293 20.039C6.48901 20.122 5.90841 20.3525 5.44228 20.7208C5.08368 21.0038 4.80368 21.3635 4.59626 21.768C4.58908 21.767 4.58135 21.7669 4.57304 21.7677C3.42512 21.8822 3.03363 23.2142 3.06183 24.2128ZM8.99961 32.8405L9.02358 32.9218C9.2589 33.718 9.50181 34.5398 9.60544 35.3635C9.68417 35.1758 9.82055 35.0137 9.99555 34.9111C10.1963 34.7933 10.5032 34.7352 10.7122 34.8646C10.83 34.9376 10.9494 35.0869 10.9726 35.2279C10.9875 35.3225 10.971 35.422 10.9245 35.5049C10.8719 35.5992 10.7955 35.6377 10.7178 35.6769C10.6656 35.7031 10.6128 35.7297 10.5662 35.7737C10.1681 36.1502 10.6408 36.3526 10.8565 36.3526C11.0025 36.3526 11.1385 36.2962 11.2596 36.2199C12.4689 35.4535 11.1319 34.1944 10.4119 33.6619C10.2736 33.5595 10.1304 33.4628 9.98465 33.3691C9.6435 33.2154 9.31308 33.0407 8.99961 32.8405Z" fill="#FABD05"/>
</g>
</svg>
