<svg width="24" height="24" viewBox="0 0 24 24" fill="none" xmlns="http://www.w3.org/2000/svg">
<path d="M12.0001 6V10M7.50012 19C8.15515 20.7478 9.92258 22 12.0001 22C14.0777 22 15.8451 20.7478 16.5001 19M19.0001 9V9.7041C19.0001 10.5491 19.2502 11.3752 19.7189 12.0783L20.8675 13.8012C21.9166 15.3749 21.1157 17.5139 19.291 18.0116C14.5175 19.3134 9.48258 19.3134 4.70913 18.0116C2.88442 17.5139 2.08349 15.3749 3.13263 13.8012L4.28123 12.0783C4.74995 11.3752 5.00006 10.5491 5.00006 9.7041V9C5.00006 5.13401 8.13407 2 12.0001 2C15.8661 2 19.0001 5.13401 19.0001 9Z" stroke="white" stroke-opacity="0.6" stroke-width="1.5" stroke-linecap="round" stroke-linejoin="round"/>
</svg>
