<svg preserveAspectRatio="none" width="100%" height="100%" overflow="visible" style="display: block;" viewBox="0 0 10.5978 17.3964" fill="none" xmlns="http://www.w3.org/2000/svg">
<g id="Group">
<path id="Vector" d="M1.82797 16.5259C2.78 16.5259 3.55176 15.7541 3.55176 14.8021C3.55176 13.8501 2.78 13.0783 1.82797 13.0783C0.875951 13.0783 0.104184 13.8501 0.104184 14.8021C0.104184 15.7541 0.875951 16.5259 1.82797 16.5259Z" fill="white"/>
<path id="Vector_2" d="M9.94048 10.6959C9.63033 10.1906 9.08439 9.55519 8.30148 8.78854C7.51858 8.0219 6.53239 7.11702 5.34177 6.07392C5.18611 5.93802 5.04092 5.81024 4.90269 5.68944C3.9862 4.8833 3.46349 4.41634 3.33571 4.28857C2.89547 3.88085 2.6225 3.43248 2.51679 2.94345C2.41109 2.45443 2.45175 2.0107 2.63876 1.61112C2.82578 1.21153 3.13592 0.873511 3.56803 0.595893C3.96181 0.343829 4.40669 0.200954 4.90269 0.163783V0C4.4729 0.0162622 4.04893 0.0592409 3.62959 0.131259C2.68406 0.293881 1.8605 0.673719 1.1589 1.26845C0.457305 1.86434 0.0739835 2.61821 0.00893477 3.53121C-0.0398518 4.10155 0.111153 4.70558 0.461952 5.34096C0.81275 5.97635 1.32152 6.58037 1.9906 7.15071C2.16948 7.29707 2.34953 7.45272 2.52841 7.61534L2.65038 7.73731C3.09062 8.1125 3.65747 8.62941 4.34977 9.29035C4.55189 9.48317 4.73542 9.65741 4.90153 9.81422C5.30227 10.1917 5.59615 10.4624 5.78085 10.6238C6.64506 11.4068 7.28858 12.1571 7.71256 12.8738C8.13654 13.5917 8.33981 14.2062 8.32355 14.7208C8.30729 15.2342 8.15628 15.6825 7.87053 16.0659C7.58478 16.4492 7.19798 16.7384 6.70895 16.9336C6.21992 17.1287 5.68095 17.2449 5.0444 17.2333C4.23129 17.2182 3.95948 17.1264 3.74459 17.0718L3.73414 17.2007C5.51717 17.6514 6.9947 17.2065 7.4303 17.0288C7.90887 16.8337 8.33284 16.599 8.71965 16.2982C9.91724 15.3666 10.4434 14.4141 10.5747 13.2397C10.6723 12.3755 10.4609 11.5276 9.93931 10.6959H9.94048Z" fill="white"/>
</g>
</svg>
