<svg preserveAspectRatio="none" width="100%" height="100%" overflow="visible" style="display: block;" viewBox="0 0 14.0424 14.133" fill="none" xmlns="http://www.w3.org/2000/svg">
<g id="Group">
<path id="Vector" d="M5.27127 10.9317C4.1062 10.9317 3.15835 9.98381 3.15835 8.81874C3.15835 7.65367 4.1062 6.70582 5.27127 6.70582C6.43634 6.70582 7.38419 7.65367 7.38419 8.81874C7.38419 9.98381 6.43634 10.9317 5.27127 10.9317ZM5.27127 7.52241C4.5569 7.52241 3.97611 8.10321 3.97611 8.81758C3.97611 9.53196 4.5569 10.1127 5.27127 10.1127C5.98565 10.1127 6.56644 9.53196 6.56644 8.81758C6.56644 8.10321 5.98565 7.52241 5.27127 7.52241Z" fill="white"/>
<path id="Vector_2" d="M5.31192 6.93001C6.33412 6.93466 7.16233 7.771 7.15652 8.79435C7.1542 9.31939 6.93233 9.79215 6.57921 10.1279L10.2603 13.8542L10.5855 14.133L7.19601 10.0942L10.7458 11.0002L7.5503 9.27989C7.55378 9.26363 7.55727 9.24737 7.55959 9.23111L14.0424 8.83385L7.57469 8.37037L10.7098 6.50952L7.24131 7.5503C7.2297 7.53287 7.21925 7.51429 7.20763 7.49802L10.6389 3.49404L6.61406 6.87193L7.50964 3.36046L5.79747 6.54088C5.76378 6.53391 5.73009 6.5281 5.69641 6.52229L5.29682 0L4.83452 6.4526L3.02012 3.39531L4.05857 6.85334C4.04464 6.86264 4.02954 6.87077 4.0156 6.88122L0 3.44061L0.163784 3.63576L3.97494 7.49338C4.31412 7.1449 4.78805 6.92885 5.31192 6.93233V6.93001Z" fill="white"/>
</g>
</svg>
