<svg preserveAspectRatio="none" width="100%" height="100%" overflow="visible" style="display: block;" viewBox="0 0 139.404 18" fill="none" xmlns="http://www.w3.org/2000/svg">
<g id="Group">
<path id="Vector" d="M5.64904 14.3198C4.98329 14.3198 4.34789 14.2217 3.74639 14.0253C3.1449 13.829 2.59874 13.5773 2.1079 13.2703C1.61707 12.9633 1.19228 12.626 0.833523 12.2601C0.474769 11.8942 0.196333 11.5408 0 11.2017L0.471199 9.45612H0.628266C1.03343 10.3325 1.49749 11.116 2.02045 11.8103C2.24177 12.112 2.48808 12.4029 2.7558 12.6831C3.02353 12.9651 3.30732 13.2132 3.60896 13.4292C3.90881 13.6451 4.23009 13.8218 4.57099 13.9593C4.91011 14.0967 5.27065 14.1645 5.64904 14.1645C5.85787 14.1645 6.13987 14.1253 6.49327 14.0467C6.84667 13.9682 7.19293 13.8343 7.53384 13.6452C7.87296 13.456 8.16389 13.2007 8.40663 12.8795C8.64758 12.56 8.76895 12.1637 8.76895 11.6925C8.76895 11.2213 8.65472 10.7894 8.42626 10.3985C8.1978 10.0059 7.9033 9.65245 7.54455 9.3401C7.18401 9.02597 6.77528 8.74932 6.31836 8.50658C5.85965 8.26562 5.40987 8.06572 4.96544 7.90865C4.45498 7.72482 3.96414 7.5142 3.49473 7.27146C3.02353 7.03051 2.60588 6.74136 2.23998 6.4076C1.87409 6.07383 1.58316 5.68831 1.36719 5.25102C1.15123 4.81373 1.04414 4.31933 1.04414 3.7696C1.04414 3.21986 1.14944 2.74688 1.35827 2.30781C1.5671 1.87052 1.85089 1.49749 2.21142 1.1905C2.57018 0.883502 2.98962 0.64433 3.46617 0.47477C3.94273 0.30521 4.44962 0.219536 4.98686 0.219536C5.65261 0.219536 6.23268 0.287361 6.72352 0.424795C7.21435 0.562228 7.63914 0.74785 7.9979 0.98345C8.35665 1.21905 8.66186 1.49035 8.90995 1.79734C9.15805 2.10434 9.38115 2.42918 9.57749 2.7683L9.10629 4.49424H8.92959C8.70648 3.73568 8.41912 3.05566 8.06572 2.45416C7.90865 2.20607 7.73195 1.95798 7.53562 1.7081C7.33929 1.46001 7.1144 1.2369 6.85916 1.04056C6.60393 0.84423 6.32014 0.687167 6.00601 0.569367C5.69188 0.451567 5.35275 0.392666 4.98686 0.392666C4.76375 0.392666 4.47639 0.431933 4.123 0.510466C3.7696 0.589 3.4269 0.722863 3.09314 0.912057C2.75937 1.10125 2.46844 1.35648 2.22035 1.67775C1.97226 1.99903 1.84732 2.39348 1.84732 2.86468C1.84732 3.33588 1.96155 3.76781 2.19001 4.15869C2.41847 4.55136 2.71297 4.90476 3.07172 5.21711C3.43047 5.53124 3.8392 5.80611 4.29791 6.04171C4.75483 6.27731 5.21354 6.47364 5.67046 6.6307C6.18092 6.81454 6.67176 7.03051 7.14117 7.2786C7.61237 7.5267 8.03002 7.81763 8.39592 8.1514C8.76181 8.48516 9.05274 8.86712 9.26871 9.29905C9.48467 9.73098 9.59176 10.22 9.59176 10.7698C9.59176 11.3195 9.48646 11.7925 9.27763 12.2316C9.0688 12.6706 8.77966 13.0419 8.41377 13.3489C8.04787 13.6559 7.62665 13.895 7.14831 14.0646C6.66997 14.2341 6.17021 14.3198 5.64725 14.3198H5.64904Z" fill="white"/>
<path id="Vector_2" d="M12.9651 14.1628H10.6894V13.9861C10.7161 13.9861 10.7554 13.97 10.8072 13.9379C10.8589 13.9057 10.9089 13.8326 10.9535 13.7219C10.9999 13.6112 11.041 13.4577 11.0803 13.2614C11.1195 13.0651 11.1392 12.8045 11.1392 12.4761V1.68846C11.0874 1.34934 11.0178 1.12624 10.9339 1.02093C10.8482 0.915626 10.7804 0.863865 10.7286 0.863865L10.6697 0.687167L12.5135 0V12.4761C12.5135 12.8027 12.5295 13.0651 12.5617 13.2614C12.5938 13.4577 12.6366 13.6112 12.6884 13.7219C12.7402 13.8326 12.7937 13.9057 12.8455 13.9379C12.8972 13.97 12.9365 13.9861 12.9633 13.9861V14.1628H12.9651Z" fill="white"/>
<path id="Vector_3" d="M14.9464 14.791C14.8018 14.8963 14.7304 15.0141 14.7304 15.1444C14.7304 15.2747 14.7572 15.3925 14.8089 15.4978C14.9785 15.8512 15.1873 16.1671 15.4372 16.4491C15.6853 16.7294 15.9477 16.9132 16.2208 16.9989C16.4956 17.0845 16.7633 17.031 17.0257 16.8418C17.2863 16.6526 17.529 16.2564 17.7522 15.6549L18.3019 14.1645H18.243L14.5555 5.65082C14.4377 5.39024 14.327 5.19748 14.2217 5.07254C14.1164 4.9476 13.9808 4.88691 13.8094 4.88691V4.71021H16.3011V4.88691C15.9352 4.88691 15.8566 5.12251 16.0655 5.59371L18.9891 12.3618L21.4414 5.84894C21.52 5.62762 21.5432 5.45449 21.5093 5.32955C21.4771 5.20461 21.4272 5.11001 21.3629 5.04576C21.2844 4.96723 21.1791 4.91547 21.0488 4.8887V4.71199H22.7158V4.8887C22.4927 4.8887 22.275 4.97972 22.059 5.16356C21.843 5.3474 21.6824 5.58835 21.5789 5.88999L17.8914 15.6977C17.629 16.4295 17.3184 16.9864 16.9597 17.3648C16.5991 17.7432 16.2118 17.9538 15.7924 17.993C15.373 18.0323 14.9321 17.9056 14.468 17.6111C14.004 17.3166 13.5435 16.8686 13.0848 16.2671L12.967 16.1297L14.8304 14.6589L14.9482 14.7964L14.9464 14.791Z" fill="white"/>
<path id="Vector_4" d="M30.7173 14.1628H28.8932V8.51372C28.8932 8.16032 28.8771 7.76765 28.845 7.33751C28.8129 6.90557 28.7308 6.50041 28.6005 6.12202C28.4702 5.74363 28.2703 5.42593 28.0025 5.1707C27.7348 4.91547 27.3653 4.78874 26.8941 4.78874C26.4229 4.78874 26.0142 4.85657 25.668 4.994C25.3217 5.13144 25.0433 5.29207 24.8344 5.47413C24.6256 5.65797 24.4882 5.84002 24.4221 6.02386C24.3561 6.2077 24.3704 6.35049 24.4614 6.45579C24.5132 6.52183 24.6024 6.57002 24.7256 6.60215C24.8505 6.63427 24.9897 6.66462 25.1468 6.68961C25.3039 6.71638 25.4698 6.74137 25.6465 6.76814C25.8232 6.79491 25.9892 6.83953 26.1463 6.90557C26.5782 7.07513 26.9209 7.34643 27.1762 7.71946C27.4314 8.09249 27.6117 8.50658 27.7152 8.96529C27.8205 9.42399 27.8598 9.89341 27.833 10.3771C27.8062 10.8608 27.7152 11.2856 27.5581 11.6515C27.2583 12.41 26.8138 13.0383 26.2248 13.5345C25.6358 14.0325 24.9951 14.2663 24.3026 14.2413C23.6475 14.2145 23.1192 14.036 22.714 13.7023C22.3089 13.3685 22.0304 12.9562 21.8805 12.4672C21.7306 11.9763 21.7145 11.448 21.8323 10.8786C21.9501 10.3093 22.2018 9.78096 22.5873 9.29012C22.9728 8.79929 23.5029 8.38521 24.1758 8.0443C24.8487 7.70518 25.6697 7.5142 26.6371 7.47494C26.6639 7.46244 26.7085 7.4553 26.7746 7.4553C26.5782 7.28574 26.3498 7.14831 26.0874 7.043C25.8518 6.95198 25.5966 6.89308 25.3217 6.8663C25.0468 6.83953 24.7898 6.83418 24.5471 6.84667C24.3043 6.85917 24.0884 6.8788 23.8992 6.90557C23.71 6.93234 23.5886 6.95197 23.5369 6.96447C23.4976 6.76814 23.5529 6.53611 23.7028 6.26838C23.8528 6.00065 24.0759 5.74542 24.3704 5.50268C24.6649 5.26172 25.0236 5.05826 25.4484 4.89405C25.8732 4.72985 26.3533 4.64952 26.8906 4.64952C27.5171 4.64952 28.0489 4.74769 28.4809 4.94403C28.9128 5.14036 29.2626 5.40808 29.5286 5.74899C29.7945 6.08989 29.9819 6.49684 30.0962 6.97518C30.2086 7.45352 30.2657 7.96577 30.2657 8.5155V12.4779C30.2657 12.8045 30.2818 13.0669 30.3139 13.2632C30.346 13.4595 30.3889 13.613 30.4406 13.7237C30.4924 13.8343 30.5459 13.9075 30.5977 13.9397C30.6495 13.9718 30.6887 13.9878 30.7155 13.9878V14.1645L30.7173 14.1628ZM26.912 7.61237C26.389 7.61237 25.8946 7.67841 25.4306 7.8087C24.9665 7.939 24.5614 8.14247 24.2151 8.41734C23.8688 8.6922 23.594 9.03846 23.3905 9.45612C23.187 9.87556 23.0871 10.3646 23.0871 10.9268C23.0871 11.2017 23.1156 11.4766 23.1745 11.7514C23.2334 12.0263 23.3316 12.2815 23.469 12.5171C23.6065 12.7527 23.7796 12.9562 23.9884 13.1258C24.1972 13.2953 24.4525 13.4078 24.7523 13.4595C25.0665 13.5256 25.361 13.5113 25.6358 13.4203C25.9107 13.3292 26.1659 13.1954 26.4015 13.0187C26.6371 12.842 26.8424 12.6296 27.0191 12.3815C27.1958 12.1334 27.3368 11.8782 27.4403 11.6158C27.5581 11.3016 27.6402 10.9661 27.6848 10.6056C27.7312 10.2468 27.733 9.88627 27.6938 9.52751C27.6545 9.16876 27.5688 8.82428 27.4385 8.49766C27.3082 8.17103 27.1315 7.87653 26.9084 7.61416L26.912 7.61237Z" fill="white"/>
<path id="Vector_5" d="M45.6047 8.35665V12.4761C45.6047 12.8027 45.6207 13.0651 45.6529 13.2614C45.685 13.4577 45.7278 13.6112 45.7796 13.7219C45.8313 13.8326 45.8849 13.9057 45.9367 13.9379C45.9884 13.97 46.0277 13.9861 46.0545 13.9861V14.1628H43.7788V13.9861C43.8055 13.9861 43.8448 13.97 43.8966 13.9379C43.9483 13.9057 43.9983 13.8326 44.0429 13.7219C44.0893 13.6112 44.1304 13.4577 44.1697 13.2614C44.2089 13.0651 44.2286 12.8045 44.2286 12.4761V8.35665C44.2286 8.12105 44.2161 7.83726 44.1893 7.5035C44.1625 7.16973 44.1072 6.8431 44.0233 6.52361C43.9376 6.20412 43.8145 5.9132 43.6503 5.65082C43.4861 5.39024 43.2683 5.21354 42.9934 5.12072C42.7186 5.02791 42.4509 5.03326 42.1885 5.12965C41.9261 5.22603 41.6887 5.37417 41.4728 5.5705C41.2568 5.76684 41.064 5.98995 40.8945 6.23804C40.7249 6.48613 40.5875 6.72173 40.4822 6.94484C40.1948 7.5731 39.9646 8.34059 39.795 9.24908C39.6254 10.1576 39.5398 11.2338 39.5398 12.4761C39.5398 12.8027 39.5558 13.0651 39.588 13.2614C39.6201 13.4577 39.6629 13.6112 39.7147 13.7219C39.7664 13.8326 39.82 13.9057 39.8717 13.9379C39.9235 13.97 39.9628 13.9861 39.9895 13.9861V14.1628H37.7139V13.9861C37.7406 13.9861 37.7799 13.97 37.8317 13.9379C37.8834 13.9057 37.9334 13.8326 37.978 13.7219C38.0244 13.6112 38.0655 13.4577 38.1048 13.2614C38.144 13.0651 38.1637 12.8045 38.1637 12.4761V8.35665C38.1637 8.12105 38.1512 7.83726 38.1244 7.5035C38.0976 7.16973 38.0423 6.8431 37.9584 6.52361C37.8727 6.20412 37.7496 5.9132 37.5871 5.65082C37.4247 5.39024 37.207 5.21354 36.9321 5.12072C36.6572 5.02791 36.3913 5.03326 36.1307 5.12965C35.8701 5.22603 35.6327 5.37417 35.4168 5.5705C35.2026 5.76684 35.0098 5.98995 34.8403 6.23804C34.6707 6.48613 34.5351 6.72173 34.4298 6.94484C34.1442 7.5731 33.9157 8.34059 33.7462 9.24908C33.5766 10.1576 33.4927 11.2338 33.4927 12.4761C33.4927 12.8027 33.5088 13.0651 33.5409 13.2614C33.573 13.4577 33.6159 13.6112 33.6676 13.7219C33.7194 13.8326 33.7729 13.9057 33.8247 13.9379C33.8764 13.97 33.9157 13.9861 33.9425 13.9861V14.1628H31.6668V13.9861C31.6936 13.9861 31.7328 13.97 31.7846 13.9379C31.8364 13.9057 31.8863 13.8326 31.931 13.7219C31.9774 13.6112 32.0184 13.4577 32.0577 13.2614C32.097 13.0651 32.1166 12.8045 32.1166 12.4761V6.3951C32.1166 6.08097 32.097 5.82395 32.0577 5.62048C32.0184 5.41879 31.9756 5.26351 31.931 5.15999C31.8846 5.05469 31.8364 4.98329 31.7846 4.94403C31.7328 4.90476 31.6936 4.88512 31.6668 4.88512V4.70843H33.4909L33.4713 9.7881C33.5623 9.1866 33.673 8.64401 33.8051 8.16032C33.9353 7.67662 34.0853 7.24469 34.2566 6.8663C34.3869 6.59144 34.5368 6.32371 34.7082 6.06134C34.8777 5.80075 35.0777 5.56158 35.3061 5.34562C35.5346 5.12965 35.7827 4.95652 36.0522 4.82623C36.3199 4.69593 36.618 4.62989 36.9446 4.62989C37.4801 4.62989 37.9173 4.74055 38.2582 4.96366C38.5974 5.18676 38.8633 5.47412 39.0525 5.82752C39.2417 6.18092 39.3702 6.57894 39.4345 7.02337C39.5005 7.4678 39.5326 7.91223 39.5326 8.35665V9.7881C39.6112 9.1866 39.7165 8.64401 39.8468 8.16032C39.9771 7.67662 40.1341 7.24469 40.318 6.8663C40.4358 6.59144 40.5821 6.32371 40.7588 6.06134C40.9355 5.80075 41.1354 5.56158 41.3567 5.34562C41.5781 5.12965 41.8279 4.95652 42.101 4.82623C42.3759 4.69593 42.6757 4.62989 43.0042 4.62989C43.5396 4.62989 43.9751 4.74055 44.3089 4.96366C44.6426 5.18676 44.9032 5.47412 45.0942 5.82752C45.2834 6.18092 45.4137 6.57894 45.4869 7.02337C45.5583 7.4678 45.594 7.91223 45.594 8.35665H45.6047Z" fill="white"/>
<path id="Vector_6" d="M46.92 10.5734C46.7505 9.93267 46.7112 9.29905 46.8022 8.67078C46.8932 8.04252 47.0931 7.46423 47.4001 6.93413C47.7071 6.40403 48.1087 5.94354 48.6067 5.55088C49.1029 5.15821 49.6722 4.87799 50.313 4.70664C50.9538 4.53708 51.5874 4.49781 52.2156 4.58884C52.8439 4.67987 53.4258 4.87977 53.9612 5.18677C54.4967 5.49376 54.9607 5.89714 55.3534 6.39332C55.7461 6.8913 56.0263 7.45888 56.1976 8.09964C56.3672 8.7404 56.4065 9.37402 56.3154 10.0023C56.2244 10.6305 56.0245 11.2088 55.7175 11.7389C55.4105 12.269 55.0072 12.7295 54.511 13.1222C54.0148 13.5149 53.4454 13.7951 52.8047 13.9664C52.1639 14.136 51.5303 14.1753 50.902 14.0842C50.2737 13.9932 49.6919 13.7933 49.1564 13.4863C48.6192 13.1793 48.1551 12.7777 47.7642 12.2797C47.3716 11.7836 47.0914 11.2142 46.9218 10.5734H46.92ZM54.8626 8.45482C54.7323 7.98362 54.5288 7.5035 54.2557 7.01267C53.9809 6.52183 53.6471 6.09169 53.2544 5.71865C52.8618 5.34562 52.4173 5.07075 51.9212 4.89405C51.4232 4.71735 50.9002 4.70129 50.3523 4.84586C49.8025 4.99043 49.3617 5.26173 49.0279 5.65975C48.6941 6.05955 48.4496 6.51648 48.2926 7.0323C48.1355 7.5499 48.057 8.09071 48.057 8.66008C48.057 9.22944 48.123 9.74884 48.2533 10.22C48.3836 10.6912 48.5871 11.1749 48.8619 11.6711C49.1368 12.1691 49.4706 12.5992 49.8614 12.9651C50.2541 13.331 50.6985 13.6059 51.1947 13.7897C51.6909 13.9736 52.2139 13.9861 52.7636 13.829C53.3133 13.6844 53.7578 13.4149 54.0969 13.0151C54.436 12.6171 54.6841 12.1584 54.8412 11.6426C54.9982 11.1267 55.0732 10.5841 55.066 10.0148C55.0589 9.44541 54.9911 8.92602 54.8608 8.45482H54.8626Z" fill="white"/>
<path id="Vector_7" d="M58.8838 6.39689L61.3558 12.3797L63.6315 6.92699C63.8921 6.29872 64.0331 5.80253 64.0527 5.43664C64.0723 5.07075 63.951 4.88691 63.6904 4.88691V4.71021H65.3378V4.88691C65.2592 4.88691 65.1682 4.91904 65.0629 4.98507C64.9576 5.05111 64.8398 5.16535 64.7095 5.32777C64.5792 5.49197 64.4311 5.72043 64.2687 6.01493C64.1062 6.30943 63.926 6.6789 63.7296 7.12332L61.454 12.6153L62.1001 14.1645H60.6294L57.4523 6.47542C57.2828 6.08276 57.0989 5.72043 56.9026 5.38667C56.7063 5.0529 56.5296 4.88691 56.3725 4.88691V4.71021H58.6482V4.88691C58.5429 4.88691 58.4983 4.994 58.5107 5.20997C58.5232 5.42593 58.6482 5.82217 58.8838 6.39689Z" fill="white"/>
<path id="Vector_8" d="M73.3411 14.1628H71.517V8.51372C71.517 8.16032 71.501 7.76765 71.4688 7.33751C71.4367 6.90557 71.3546 6.50041 71.2243 6.12202C71.094 5.74363 70.8941 5.42593 70.6264 5.1707C70.3587 4.91547 69.9892 4.78874 69.518 4.78874C69.0468 4.78874 68.6381 4.85657 68.2918 4.994C67.9455 5.13144 67.6671 5.29207 67.4583 5.47413C67.2495 5.65797 67.112 5.84002 67.046 6.02386C66.9799 6.2077 66.9942 6.35049 67.0852 6.45579C67.137 6.52183 67.2262 6.57002 67.3494 6.60215C67.4743 6.63427 67.6136 6.66462 67.7706 6.68961C67.9277 6.71638 68.0937 6.74137 68.2704 6.76814C68.4471 6.79491 68.6131 6.83953 68.7701 6.90557C69.2021 7.07513 69.5448 7.34643 69.8 7.71946C70.0552 8.09249 70.2355 8.50658 70.339 8.96529C70.4443 9.42399 70.4836 9.89341 70.4568 10.3771C70.43 10.8608 70.339 11.2856 70.182 11.6515C69.8821 12.41 69.4377 13.0383 68.8487 13.5345C68.2597 14.0325 67.6189 14.2663 66.9264 14.2413C66.2714 14.2145 65.743 14.036 65.3379 13.7023C64.9327 13.3685 64.6543 12.9562 64.5044 12.4672C64.3544 11.9763 64.3384 11.448 64.4562 10.8786C64.574 10.3093 64.8256 9.78096 65.2112 9.29012C65.5967 8.79929 66.1268 8.38521 66.7997 8.0443C67.4726 7.70518 68.2936 7.5142 69.261 7.47494C69.2877 7.46244 69.3324 7.4553 69.3984 7.4553C69.2021 7.28574 68.9736 7.14831 68.7112 7.043C68.4756 6.95198 68.2204 6.89308 67.9455 6.8663C67.6707 6.83953 67.4137 6.83418 67.1709 6.84667C66.9282 6.85917 66.7122 6.8788 66.523 6.90557C66.3338 6.93234 66.2125 6.95197 66.1607 6.96447C66.1214 6.76814 66.1768 6.53611 66.3267 6.26838C66.4766 6.00065 66.6997 5.74542 66.9942 5.50268C67.2887 5.26172 67.6475 5.05826 68.0723 4.89405C68.4971 4.72985 68.9772 4.64952 69.5144 4.64952C70.1409 4.64952 70.6728 4.74769 71.1047 4.94403C71.5367 5.14036 71.8865 5.40808 72.1524 5.74899C72.4184 6.08989 72.6058 6.49684 72.72 6.97518C72.8324 7.45352 72.8896 7.96577 72.8896 8.5155V12.4779C72.8896 12.8045 72.9056 13.0669 72.9378 13.2632C72.9699 13.4595 73.0127 13.613 73.0645 13.7237C73.1162 13.8343 73.1698 13.9075 73.2215 13.9397C73.2733 13.9718 73.3126 13.9878 73.3393 13.9878V14.1645L73.3411 14.1628ZM69.5358 7.61237C69.0129 7.61237 68.5185 7.67841 68.0544 7.8087C67.5904 7.939 67.1852 8.14247 66.8389 8.41734C66.4927 8.6922 66.2178 9.03846 66.0143 9.45612C65.8109 9.87556 65.7109 10.3646 65.7109 10.9268C65.7109 11.2017 65.7395 11.4766 65.7984 11.7514C65.8573 12.0263 65.9554 12.2815 66.0929 12.5171C66.2303 12.7527 66.4034 12.9562 66.6123 13.1258C66.8211 13.2953 67.0763 13.4078 67.3762 13.4595C67.6903 13.5256 67.9848 13.5113 68.2597 13.4203C68.5345 13.3292 68.7898 13.1954 69.0254 13.0187C69.261 12.842 69.4662 12.6296 69.6429 12.3815C69.8196 12.1334 69.9606 11.8782 70.0642 11.6158C70.182 11.3016 70.2641 10.9661 70.3087 10.6056C70.3551 10.2468 70.3569 9.88627 70.3176 9.52751C70.2783 9.16876 70.1927 8.82428 70.0624 8.49766C69.9321 8.17103 69.7554 7.87653 69.5323 7.61416L69.5358 7.61237Z" fill="white"/>
<path id="Vector_9" d="M87.5021 1.178C87.5681 0.772839 87.5538 0.569366 87.4628 0.569366H84.7552C84.259 0.621127 83.8146 0.694304 83.4219 0.785331C83.0292 0.876358 82.6669 0.988803 82.3332 1.1191C81.9994 1.24939 81.6853 1.39397 81.3925 1.55103C81.098 1.7081 80.8 1.87766 80.5001 2.0615H80.3234V0.394452H90.3864V0.57115C90.2418 0.57115 90.0758 0.672886 89.8866 0.874574C89.6974 1.07805 89.4904 1.34221 89.2691 1.66883L88.6801 2.5327L88.2481 3.16096L82.3242 11.8317C82.1154 12.1976 81.9583 12.5153 81.853 12.7831C81.7477 13.0508 81.6763 13.2739 81.6371 13.4506C81.5978 13.6273 81.5853 13.7612 81.5978 13.8522C81.6103 13.9432 81.6371 13.9896 81.6763 13.9896H84.9515C85.4352 13.9379 85.8761 13.8647 86.2759 13.7737C86.6739 13.6826 87.0398 13.5738 87.3736 13.4506C87.7073 13.3275 88.0215 13.1864 88.316 13.0294C88.6105 12.8723 88.9067 12.7028 89.2084 12.5189H89.3654V14.1663H78.7742V13.9896C78.8527 13.9896 78.9598 13.9218 79.0972 13.7844C79.2347 13.6469 79.3953 13.4613 79.5774 13.2257C79.7594 12.9901 79.9664 12.7152 80.1949 12.4011C80.4234 12.087 80.6625 11.7532 80.9106 11.3998L86.8542 2.73081C87.2201 2.10255 87.436 1.58673 87.5021 1.18157V1.178Z" fill="white"/>
<path id="Vector_10" d="M98.6448 13.9878C98.6716 13.9878 98.7109 13.9718 98.7626 13.9397C98.8144 13.9075 98.8644 13.8379 98.909 13.7344C98.9554 13.6291 98.9964 13.4792 99.0357 13.2828C99.075 13.0865 99.0946 12.8259 99.0946 12.4975C99.0553 11.8692 99.0036 11.2035 98.9375 10.4967C98.8715 9.78988 98.7769 9.11343 98.6537 8.46731C98.5288 7.81941 98.3592 7.22863 98.1433 6.69139C97.9273 6.15593 97.6435 5.73649 97.2901 5.43664C96.951 5.14928 96.5851 5.01899 96.1924 5.04398C95.7998 5.08324 95.4267 5.25994 95.0733 5.57408C94.9288 5.70437 94.8056 5.83645 94.7003 5.96674C94.4647 6.28087 94.2595 6.63428 94.0828 7.02516C93.9061 7.41604 93.7597 7.81941 93.6419 8.23171C93.5241 8.64401 93.4384 9.06166 93.3867 9.48646C93.3349 9.91125 93.3081 10.32 93.3081 10.7126V12.4779C93.3081 12.8045 93.3242 13.0669 93.3563 13.2632C93.3884 13.4595 93.4313 13.613 93.483 13.7237C93.5348 13.8343 93.5884 13.9075 93.6401 13.9397C93.6919 13.9718 93.7311 13.9878 93.7579 13.9878V14.1645H91.4822V13.9878C91.509 13.9878 91.5483 13.9718 91.6 13.9397C91.6518 13.9075 91.7018 13.8343 91.7464 13.7237C91.7928 13.613 91.8338 13.4595 91.8731 13.2632C91.9124 13.0669 91.932 12.8063 91.932 12.4779V1.69025C91.8928 1.35113 91.8267 1.12802 91.7357 1.02272C91.6447 0.917413 91.5715 0.865652 91.5197 0.865652L91.4608 0.688951L93.3046 0.00178385V9.02418C93.4099 8.34416 93.5723 7.7391 93.7954 7.209C94.0167 6.6789 94.2791 6.23804 94.5789 5.88464C94.8788 5.46698 95.2358 5.14928 95.6481 4.93332C96.0604 4.71735 96.528 4.64239 97.051 4.70843C97.731 4.81373 98.27 5.07075 98.6698 5.48305C99.0678 5.89535 99.3784 6.39511 99.6015 6.9841C99.7461 7.36428 99.8657 7.79442 99.9638 8.27812C100.062 8.76181 100.144 9.26871 100.208 9.79881C100.274 10.3289 100.326 10.8644 100.365 11.407C100.405 11.9495 100.437 12.4689 100.464 12.9669C100.53 13.3988 100.605 13.6773 100.688 13.8004C100.774 13.9254 100.842 13.9861 100.894 13.9861V14.1628H98.6377V13.9861L98.6448 13.9878Z" fill="white"/>
<path id="Vector_11" d="M110.864 14.1628H109.04V8.51372C109.04 8.16032 109.024 7.76765 108.992 7.33751C108.96 6.90557 108.877 6.50041 108.747 6.12202C108.617 5.74363 108.417 5.42593 108.149 5.1707C107.882 4.91547 107.512 4.78874 107.041 4.78874C106.57 4.78874 106.161 4.85657 105.815 4.994C105.468 5.13144 105.19 5.29207 104.981 5.47413C104.772 5.65797 104.635 5.84002 104.569 6.02386C104.503 6.2077 104.517 6.35049 104.608 6.45579C104.66 6.52183 104.749 6.57002 104.872 6.60215C104.997 6.63427 105.136 6.66462 105.294 6.68961C105.451 6.71638 105.617 6.74137 105.793 6.76814C105.97 6.79491 106.136 6.83953 106.293 6.90557C106.725 7.07513 107.068 7.34643 107.323 7.71946C107.578 8.09249 107.758 8.50658 107.862 8.96529C107.967 9.42399 108.006 9.89341 107.98 10.3771C107.953 10.8608 107.862 11.2856 107.705 11.6515C107.405 12.41 106.961 13.0383 106.372 13.5345C105.783 14.0325 105.142 14.2663 104.449 14.2413C103.794 14.2145 103.266 14.036 102.861 13.7023C102.456 13.3685 102.177 12.9562 102.027 12.4672C101.877 11.9763 101.861 11.448 101.979 10.8786C102.097 10.3093 102.349 9.78096 102.734 9.29012C103.12 8.79929 103.65 8.38521 104.323 8.0443C104.995 7.70518 105.816 7.5142 106.784 7.47494C106.811 7.46244 106.855 7.4553 106.921 7.4553C106.725 7.28574 106.497 7.14831 106.234 7.043C105.999 6.95198 105.743 6.89308 105.468 6.8663C105.194 6.83953 104.937 6.83418 104.694 6.84667C104.451 6.85917 104.235 6.8788 104.046 6.90557C103.857 6.93234 103.735 6.95197 103.684 6.96447C103.644 6.76814 103.7 6.53611 103.85 6.26838C104 6.00065 104.223 5.74542 104.517 5.50268C104.812 5.26172 105.17 5.05826 105.595 4.89405C106.02 4.72985 106.5 4.64952 107.037 4.64952C107.664 4.64952 108.196 4.74769 108.628 4.94403C109.06 5.14036 109.409 5.40808 109.675 5.74899C109.941 6.08989 110.129 6.49684 110.243 6.97518C110.355 7.45352 110.412 7.96577 110.412 8.5155V12.4779C110.412 12.8045 110.429 13.0669 110.461 13.2632C110.493 13.4595 110.536 13.613 110.587 13.7237C110.639 13.8343 110.693 13.9075 110.744 13.9397C110.796 13.9718 110.835 13.9878 110.862 13.9878V14.1645L110.864 14.1628ZM107.059 7.61237C106.536 7.61237 106.041 7.67841 105.577 7.8087C105.113 7.939 104.708 8.14247 104.362 8.41734C104.016 8.6922 103.741 9.03846 103.537 9.45612C103.334 9.87556 103.234 10.3646 103.234 10.9268C103.234 11.2017 103.262 11.4766 103.321 11.7514C103.38 12.0263 103.478 12.2815 103.616 12.5171C103.753 12.7527 103.926 12.9562 104.135 13.1258C104.344 13.2953 104.599 13.4078 104.899 13.4595C105.213 13.5256 105.508 13.5113 105.783 13.4203C106.057 13.3292 106.313 13.1954 106.548 13.0187C106.784 12.842 106.989 12.6296 107.166 12.3815C107.343 12.1334 107.484 11.8782 107.587 11.6158C107.705 11.3016 107.787 10.9661 107.832 10.6056C107.878 10.2468 107.88 9.88627 107.84 9.52751C107.801 9.16876 107.716 8.82428 107.585 8.49766C107.455 8.17103 107.278 7.87653 107.055 7.61416L107.059 7.61237Z" fill="white"/>
<path id="Vector_12" d="M111.826 4.70843H113.65L113.63 9.7881C113.709 9.1866 113.816 8.64401 113.954 8.16032C114.091 7.67662 114.244 7.24469 114.414 6.8663C114.544 6.59144 114.694 6.32371 114.866 6.06134C115.035 5.80075 115.235 5.56158 115.464 5.34562C115.692 5.12965 115.94 4.95652 116.21 4.82623C116.477 4.69593 116.775 4.62989 117.102 4.62989C117.637 4.62989 118.073 4.74055 118.407 4.96366C118.74 5.18676 119.001 5.47412 119.192 5.82752C119.381 6.18092 119.512 6.57894 119.585 7.02337C119.656 7.4678 119.692 7.91223 119.692 8.35665V12.4761C119.692 12.8027 119.708 13.0651 119.74 13.2614C119.772 13.4577 119.815 13.6112 119.867 13.7219C119.918 13.8326 119.972 13.9057 120.024 13.9379C120.076 13.97 120.115 13.9861 120.142 13.9861V14.1628H117.866V13.9861C117.893 13.9861 117.932 13.97 117.984 13.9379C118.035 13.9057 118.085 13.8326 118.13 13.7219C118.176 13.6112 118.218 13.4577 118.257 13.2614C118.296 13.0651 118.316 12.8045 118.316 12.4761V8.35665C118.316 8.12105 118.303 7.83726 118.276 7.5035C118.25 7.16973 118.194 6.8431 118.11 6.52361C118.025 6.20412 117.902 5.9132 117.739 5.65082C117.577 5.39024 117.359 5.21354 117.084 5.12072C116.809 5.02791 116.543 5.03326 116.283 5.12965C116.022 5.22603 115.785 5.37417 115.569 5.5705C115.355 5.76684 115.162 5.98995 114.992 6.23804C114.823 6.48613 114.687 6.72173 114.582 6.94484C114.296 7.5731 114.068 8.34059 113.898 9.24908C113.729 10.1576 113.645 11.2338 113.645 12.4761C113.645 12.8027 113.661 13.0651 113.693 13.2614C113.725 13.4577 113.768 13.6112 113.82 13.7219C113.871 13.8326 113.925 13.9057 113.977 13.9379C114.028 13.97 114.068 13.9861 114.095 13.9861V14.1628H111.819V13.9861C111.846 13.9861 111.885 13.97 111.937 13.9379C111.988 13.9057 112.038 13.8326 112.083 13.7219C112.129 13.6112 112.17 13.4577 112.21 13.2614C112.249 13.0651 112.269 12.8045 112.269 12.4761V6.3951C112.269 6.08097 112.249 5.82395 112.21 5.62048C112.17 5.41879 112.128 5.26351 112.083 5.15999C112.037 5.05469 111.988 4.98329 111.937 4.94403C111.885 4.90476 111.846 4.88512 111.819 4.88512V4.70843H111.826Z" fill="white"/>
<path id="Vector_13" d="M121.123 4.70843H122.947L122.928 9.7881C123.006 9.1866 123.113 8.64401 123.251 8.16032C123.388 7.67662 123.542 7.24469 123.711 6.8663C123.842 6.59144 123.992 6.32371 124.163 6.06134C124.333 5.80075 124.532 5.56158 124.761 5.34562C124.989 5.12965 125.237 4.95652 125.507 4.82623C125.775 4.69593 126.073 4.62989 126.399 4.62989C126.935 4.62989 127.37 4.74055 127.704 4.96366C128.038 5.18676 128.298 5.47412 128.489 5.82752C128.679 6.18092 128.809 6.57894 128.882 7.02337C128.953 7.4678 128.989 7.91223 128.989 8.35665V12.4761C128.989 12.8027 129.005 13.0651 129.037 13.2614C129.069 13.4577 129.112 13.6112 129.164 13.7219C129.216 13.8326 129.269 13.9057 129.321 13.9379C129.373 13.97 129.412 13.9861 129.439 13.9861V14.1628H127.163V13.9861C127.19 13.9861 127.229 13.97 127.281 13.9379C127.333 13.9057 127.383 13.8326 127.427 13.7219C127.474 13.6112 127.515 13.4577 127.554 13.2614C127.593 13.0651 127.613 12.8045 127.613 12.4761V8.35665C127.613 8.12105 127.601 7.83726 127.574 7.5035C127.547 7.16973 127.492 6.8431 127.408 6.52361C127.322 6.20412 127.199 5.9132 127.037 5.65082C126.874 5.39024 126.656 5.21354 126.382 5.12072C126.107 5.02791 125.841 5.03326 125.58 5.12965C125.32 5.22603 125.082 5.37417 124.866 5.5705C124.652 5.76684 124.459 5.98995 124.29 6.23804C124.12 6.48613 123.984 6.72173 123.879 6.94484C123.594 7.5731 123.365 8.34059 123.196 9.24908C123.026 10.1576 122.942 11.2338 122.942 12.4761C122.942 12.8027 122.958 13.0651 122.99 13.2614C123.022 13.4577 123.065 13.6112 123.117 13.7219C123.169 13.8326 123.222 13.9057 123.274 13.9379C123.326 13.97 123.365 13.9861 123.392 13.9861V14.1628H121.116V13.9861C121.143 13.9861 121.182 13.97 121.234 13.9379C121.286 13.9057 121.336 13.8326 121.38 13.7219C121.427 13.6112 121.468 13.4577 121.507 13.2614C121.546 13.0651 121.566 12.8045 121.566 12.4761V6.3951C121.566 6.08097 121.546 5.82395 121.507 5.62048C121.468 5.41879 121.425 5.26351 121.38 5.15999C121.334 5.05469 121.286 4.98329 121.234 4.94403C121.182 4.90476 121.143 4.88512 121.116 4.88512V4.70843H121.123Z" fill="white"/>
<path id="Vector_14" d="M139.404 14.1628H137.579V8.51372C137.579 8.16032 137.563 7.76765 137.531 7.33751C137.499 6.90557 137.417 6.50041 137.287 6.12202C137.156 5.74363 136.957 5.42593 136.689 5.1707C136.421 4.91547 136.052 4.78874 135.58 4.78874C135.109 4.78874 134.7 4.85657 134.354 4.994C134.008 5.13144 133.73 5.29207 133.521 5.47413C133.312 5.65797 133.174 5.84002 133.108 6.02386C133.042 6.2077 133.057 6.35049 133.148 6.45579C133.199 6.52183 133.289 6.57002 133.412 6.60215C133.537 6.63427 133.676 6.66462 133.833 6.68961C133.99 6.71638 134.156 6.74137 134.333 6.76814C134.51 6.79491 134.676 6.83953 134.833 6.90557C135.265 7.07513 135.607 7.34643 135.862 7.71946C136.118 8.09249 136.298 8.50658 136.401 8.96529C136.507 9.42399 136.546 9.89341 136.519 10.3771C136.492 10.8608 136.401 11.2856 136.244 11.6515C135.945 12.41 135.5 13.0383 134.911 13.5345C134.322 14.0325 133.681 14.2663 132.989 14.2413C132.334 14.2145 131.805 14.036 131.4 13.7023C130.995 13.3685 130.717 12.9562 130.567 12.4672C130.417 11.9763 130.401 11.448 130.519 10.8786C130.636 10.3093 130.888 9.78096 131.274 9.29012C131.659 8.79929 132.189 8.38521 132.862 8.0443C133.535 7.70518 134.356 7.5142 135.323 7.47494C135.35 7.46244 135.395 7.4553 135.461 7.4553C135.265 7.28574 135.036 7.14831 134.774 7.043C134.538 6.95198 134.283 6.89308 134.008 6.8663C133.733 6.83953 133.476 6.83418 133.233 6.84667C132.991 6.85917 132.775 6.8788 132.585 6.90557C132.396 6.93234 132.275 6.95197 132.223 6.96447C132.184 6.76814 132.239 6.53611 132.389 6.26838C132.539 6.00065 132.762 5.74542 133.057 5.50268C133.351 5.26172 133.71 5.05826 134.135 4.89405C134.559 4.72985 135.04 4.64952 135.577 4.64952C136.203 4.64952 136.735 4.74769 137.167 4.94403C137.599 5.14036 137.949 5.40808 138.215 5.74899C138.481 6.08989 138.668 6.49684 138.782 6.97518C138.895 7.45352 138.952 7.96577 138.952 8.5155V12.4779C138.952 12.8045 138.968 13.0669 139 13.2632C139.032 13.4595 139.075 13.613 139.127 13.7237C139.179 13.8343 139.232 13.9075 139.284 13.9397C139.336 13.9718 139.375 13.9878 139.402 13.9878V14.1645L139.404 14.1628ZM135.598 7.61237C135.075 7.61237 134.581 7.67841 134.117 7.8087C133.653 7.939 133.248 8.14247 132.901 8.41734C132.555 8.6922 132.28 9.03846 132.077 9.45612C131.873 9.87556 131.773 10.3646 131.773 10.9268C131.773 11.2017 131.802 11.4766 131.861 11.7514C131.92 12.0263 132.018 12.2815 132.155 12.5171C132.293 12.7527 132.466 12.9562 132.675 13.1258C132.884 13.2953 133.139 13.4078 133.439 13.4595C133.753 13.5256 134.047 13.5113 134.322 13.4203C134.597 13.3292 134.852 13.1954 135.088 13.0187C135.323 12.842 135.529 12.6296 135.705 12.3815C135.882 12.1334 136.023 11.8782 136.127 11.6158C136.244 11.3016 136.326 10.9661 136.371 10.6056C136.418 10.2468 136.419 9.88627 136.38 9.52751C136.341 9.16876 136.255 8.82428 136.125 8.49766C135.995 8.17103 135.818 7.87653 135.595 7.61416L135.598 7.61237Z" fill="white"/>
</g>
</svg>
