<svg width="100" height="100" viewBox="0 0 100 100" fill="none" xmlns="http://www.w3.org/2000/svg">
<path d="M36.024 82.6152L34.9649 83.945L36.024 82.6152ZM50 20.2966L48.7692 21.4693C48.7767 21.4772 48.7843 21.485 48.792 21.4928L50 20.2966ZM57.992 30.7836C58.6527 31.4508 59.729 31.4561 60.3962 30.7954C61.0633 30.1348 61.0686 29.0584 60.408 28.3913L57.992 30.7836ZM89.4394 55.4132C88.9728 56.2279 89.255 57.2666 90.0697 57.7332C90.8844 58.1999 91.9232 57.9177 92.3898 57.1029L89.4394 55.4132ZM59.2075 88.3077C59.9911 87.7905 60.207 86.736 59.6898 85.9524C59.1726 85.1688 58.1181 84.9529 57.3345 85.4701L59.2075 88.3077ZM70.5311 88.1384L69.4784 89.4732V89.4732L70.5311 88.1384ZM76 63.9899L74.7749 65.1686C74.7825 65.1765 74.7902 65.1843 74.7979 65.192L76 63.9899ZM81.4689 88.1384L80.4162 86.8036V86.8036L81.4689 88.1384ZM78.3979 68.7922C79.0618 69.4561 80.1381 69.4561 80.802 68.7923C81.466 68.1284 81.466 67.052 80.8021 66.3881L78.3979 68.7922ZM37.083 81.2854C30.2153 75.816 22.397 70.2497 16.2133 63.2154C10.0878 56.2472 5.7 47.97 5.7 37.1956H2.3C2.3 49.0197 7.15691 58.0629 13.6597 65.4602C20.1043 72.7914 28.2981 78.6356 34.9649 83.945L37.083 81.2854ZM5.7 37.1956C5.7 26.5228 11.6723 17.4906 19.9505 13.6679C28.1167 9.89685 38.8528 11.0611 48.7692 21.4693L51.2308 19.124C40.4479 7.80629 28.184 6.12077 18.5251 10.5811C8.97812 14.9897 2.3 25.2699 2.3 37.1956H5.7ZM34.9649 83.945C37.3372 85.8343 39.7726 87.7568 42.2138 89.1979C44.654 90.6384 47.264 91.7 50 91.7V88.3C48.136 88.3 46.146 87.571 43.9422 86.27C41.7394 84.9696 39.4868 83.1997 37.083 81.2854L34.9649 83.945ZM97.7 37.1956C97.7 25.2699 91.0219 14.9897 81.4749 10.5811C71.816 6.12077 59.5521 7.80629 48.7692 19.124L51.2308 21.4693C61.1472 11.0611 71.8833 9.89685 80.0495 13.6679C88.3278 17.4906 94.3 26.5228 94.3 37.1956H97.7ZM48.792 21.4928L57.992 30.7836L60.408 28.3913L51.208 19.1005L48.792 21.4928ZM92.3898 57.1029C95.6425 51.4235 97.7 44.888 97.7 37.1956H94.3C94.3 44.2417 92.4253 50.1997 89.4394 55.4132L92.3898 57.1029ZM57.3345 85.4701C54.6334 87.253 52.2354 88.3 50 88.3V91.7C53.2537 91.7 56.3447 90.1973 59.2075 88.3077L57.3345 85.4701ZM71.5838 86.8036C68.8349 84.6356 65.8905 82.5629 63.5508 79.9273C61.2695 77.3574 59.7 74.3864 59.7 70.5383H56.3C56.3 75.4471 58.348 79.1878 61.0082 82.1845C63.6101 85.1155 66.9312 87.4644 69.4784 89.4732L71.5838 86.8036ZM59.7 70.5383C59.7 66.7955 61.8135 63.6753 64.6696 62.3693C67.4183 61.1123 71.1601 61.4113 74.7749 65.1686L77.2251 62.8113C72.7402 58.1498 67.482 57.3445 63.2556 59.2772C59.1366 61.1608 56.3 65.5242 56.3 70.5383H59.7ZM69.4784 89.4732C70.3972 90.1978 71.4058 90.9888 72.4334 91.5895C73.4605 92.1899 74.6683 92.7 76 92.7V89.3C75.5317 89.3 74.9395 89.1162 74.1493 88.6543C73.3597 88.1927 72.5339 87.5528 71.5838 86.8036L69.4784 89.4732ZM82.5216 89.4732C85.0688 87.4644 88.3899 85.1155 90.9918 82.1845C93.652 79.1878 95.7 75.4471 95.7 70.5383H92.3C92.3 74.3864 90.7305 77.3574 88.4492 79.9273C86.1095 82.5629 83.1651 84.6356 80.4162 86.8036L82.5216 89.4732ZM95.7 70.5383C95.7 65.5242 92.8634 61.1608 88.7444 59.2772C84.518 57.3445 79.2598 58.1498 74.7749 62.8113L77.2251 65.1686C80.8399 61.4113 84.5817 61.1123 87.3304 62.3693C90.1865 63.6753 92.3 66.7955 92.3 70.5383H95.7ZM80.4162 86.8036C79.4661 87.5528 78.6403 88.1927 77.8507 88.6543C77.0605 89.1162 76.4683 89.3 76 89.3V92.7C77.3317 92.7 78.5395 92.1899 79.5666 91.5895C80.5942 90.9888 81.6028 90.1978 82.5216 89.4732L80.4162 86.8036ZM74.7979 65.192L78.3979 68.7922L80.8021 66.3881L77.2021 62.7879L74.7979 65.192Z" fill="#E5B8F4"/>
</svg>
