<svg width="94" height="94" viewBox="0 0 94 94" fill="none" xmlns="http://www.w3.org/2000/svg">
<path d="M93.75 46.8756C93.75 21.0053 72.7456 0.000590551 46.8768 0C21.0079 0 0.00357723 21.0053 0.00357723 46.8768C0.0189316 55.1557 2.26695 63.2575 6.43491 70.399L0.0829178 89.462C-0.324326 90.6839 0.83766 91.8461 2.05924 91.4392L20.2901 85.3636C28.1041 90.773 37.3564 93.7364 46.8753 93.7506C72.7456 93.75 93.75 72.7453 93.75 46.8756ZM90.6244 46.875C90.6244 71.0557 71.0577 90.6236 46.8783 90.6242C37.729 90.6242 28.815 87.7299 21.3887 82.386C20.9816 82.0907 20.4587 82.014 19.9827 82.1734L4.03594 87.4878L9.60671 70.7675C9.75121 70.3305 9.69748 69.8563 9.45984 69.4642C5.3324 62.6522 3.14298 54.8427 3.12768 46.8756C3.12923 22.6943 22.6977 3.12579 46.8768 3.12638C71.0568 3.12638 90.6243 22.6943 90.6244 46.875ZM31.2139 42.1878C28.6436 42.1878 26.5269 44.3049 26.5269 46.875C26.5269 49.4457 28.6436 51.5622 31.2139 51.5622C33.7841 51.5622 35.9008 49.4457 35.9008 46.875C35.9008 44.3049 33.7841 42.1878 31.2139 42.1878ZM46.8768 42.1878C44.3065 42.1878 42.1898 44.3049 42.1898 46.875C42.1899 49.4457 44.3066 51.5622 46.8768 51.5622C49.447 51.5622 51.5637 49.4457 51.5637 46.875C51.5638 44.3049 49.447 42.1878 46.8768 42.1878ZM62.4631 42.1878C59.8928 42.1878 57.7746 44.3049 57.7746 46.875C57.7746 49.4457 59.8928 51.5622 62.4631 51.5622C65.0333 51.5622 67.15 49.4457 67.15 46.875C67.15 44.3049 65.0333 42.1878 62.4631 42.1878ZM31.2139 45.3124C32.0953 45.3124 32.7767 45.9939 32.7767 46.875C32.7767 47.7567 32.0953 48.4382 31.2139 48.4382C30.3324 48.4382 29.651 47.7567 29.651 46.875C29.651 45.9939 30.3324 45.3124 31.2139 45.3124ZM46.8768 45.3124C47.7582 45.3124 48.4381 45.9939 48.4381 46.875C48.4381 47.7567 47.7582 48.4382 46.8768 48.4382C45.9954 48.4382 45.314 47.7567 45.314 46.875C45.314 45.9939 45.9954 45.3124 46.8768 45.3124ZM62.4631 45.3124C63.3445 45.3124 64.0244 45.9939 64.0243 46.875C64.0243 47.7567 63.3445 48.4382 62.4631 48.4382C61.5816 48.4382 60.9002 47.7567 60.9002 46.875C60.9002 45.9939 61.5816 45.3124 62.4631 45.3124Z" fill="#8D98AF"/>
</svg>
