<svg style="display: block;" viewBox="0 0 20 20.25" fill="none" xmlns="http://www.w3.org/2000/svg">
<g id="Vector">
<path d="M5.75 0.75C5.75 0.335786 5.41421 0 5 0C4.58579 0 4.25 0.335786 4.25 0.75V2.32926C2.81067 2.44451 1.86577 2.72737 1.17157 3.42157C0.477375 4.11577 0.194513 5.06067 0.0792572 6.5H19.9207C19.8055 5.06067 19.5226 4.11577 18.8284 3.42157C18.1342 2.72737 17.1893 2.44451 15.75 2.32926V0.75C15.75 0.335786 15.4142 0 15 0C14.5858 0 14.25 0.335786 14.25 0.75V2.2629C13.5847 2.25 12.839 2.25 12 2.25H8C7.16097 2.25 6.41527 2.25 5.75 2.2629V0.75Z" fill="currentColor"/>
<path fill-rule="evenodd" clip-rule="evenodd" d="M20 10.25V12.25C20 16.0212 20 17.9069 18.8284 19.0784C17.6569 20.25 15.7712 20.25 12 20.25H8C4.22876 20.25 2.34315 20.25 1.17157 19.0784C0 17.9069 0 16.0212 0 12.25V10.25C0 9.41097 0 8.66527 0.012902 8H19.9871C20 8.66527 20 9.41097 20 10.25ZM14.5 16.25C15.3284 16.25 16 15.5784 16 14.75C16 13.9216 15.3284 13.25 14.5 13.25C13.6716 13.25 13 13.9216 13 14.75C13 15.5784 13.6716 16.25 14.5 16.25Z" fill="currentColor"/>
</g>
</svg>
