<svg style="display: block;" viewBox="0 0 19.5 21.5" fill="none" xmlns="http://www.w3.org/2000/svg">
<path id="Subtract" fill-rule="evenodd" clip-rule="evenodd" d="M3.41998 0.0151237C3.58534 -5.44442e-05 3.77237 -3.09328e-05 4.0436 3.16071e-06H15.4564C15.7276 -3.09331e-05 15.9147 -5.45364e-05 16.08 0.0151237C17.9182 0.183854 19.331 1.70266 19.486 3.5609C19.5 3.7294 19.5 3.92111 19.5 4.20924L19.5 19.0098C19.5 19.7816 19.0176 20.3651 18.4059 20.5791C17.7893 20.7947 17.0404 20.6318 16.5822 19.9907C16.5655 19.9673 16.5498 19.9564 16.5386 19.9506C16.5263 19.9444 16.5132 19.9414 16.5 19.9414C16.4868 19.9414 16.4737 19.9444 16.4615 19.9506C16.4502 19.9564 16.4345 19.9673 16.4178 19.9907L15.9851 20.596C15.1235 21.8013 13.3765 21.8013 12.5149 20.596C12.2515 20.2276 11.7485 20.2276 11.4851 20.596C10.6235 21.8013 8.8765 21.8013 8.01487 20.596C7.7515 20.2276 7.24851 20.2276 6.98514 20.596C6.12351 21.8013 4.3765 21.8013 3.51486 20.596L3.08217 19.9907C3.06546 19.9673 3.04981 19.9564 3.03856 19.9506C3.02631 19.9444 3.0132 19.9414 3 19.9414C2.98681 19.9414 2.9737 19.9444 2.96145 19.9506C2.9502 19.9564 2.93455 19.9673 2.91784 19.9907C2.45958 20.6318 1.71074 20.7947 1.09414 20.5791C0.482365 20.3651 4.40702e-06 19.7816 4.40702e-06 19.0098L2.14204e-06 4.20925C-2.3488e-05 3.92098 -4.05349e-05 3.72945 0.0140144 3.5609C0.168968 1.70266 1.58179 0.183854 3.41998 0.0151237ZM7.21967 6.2197C7.51256 5.92681 7.98744 5.92681 8.28033 6.2197L9.75001 7.68938L11.2197 6.21972C11.5126 5.92682 11.9874 5.92682 12.2803 6.21972C12.5732 6.51261 12.5732 6.98748 12.2803 7.28038L10.8107 8.75004L12.2803 10.2197C12.5732 10.5126 12.5732 10.9875 12.2803 11.2803C11.9874 11.5732 11.5125 11.5732 11.2197 11.2803L9.75001 9.8107L8.28035 11.2804C7.98745 11.5733 7.51258 11.5733 7.21969 11.2804C6.92679 10.9875 6.92679 10.5126 7.21969 10.2197L8.68935 8.75004L7.21967 7.28036C6.92678 6.98747 6.92678 6.51259 7.21967 6.2197ZM4.5 14.25C4.5 13.8358 4.83579 13.5 5.25 13.5H14.25C14.6642 13.5 15 13.8358 15 14.25C15 14.6642 14.6642 15 14.25 15H5.25C4.83579 15 4.5 14.6642 4.5 14.25Z" fill="currentColor"/>
</svg>
