<svg style="display: block;" viewBox="0 0 23.7501 20.5" fill="none" xmlns="http://www.w3.org/2000/svg">
<g id="Union">
<path d="M12 0C9.37669 0 7.25005 2.12665 7.25005 4.75C7.25005 7.37335 9.37669 9.5 12 9.5C14.6234 9.5 16.75 7.37335 16.75 4.75C16.75 2.12665 14.6234 0 12 0Z" fill="currentColor"/>
<path d="M12 11C10.2158 11 8.5665 11.4808 7.34138 12.2975C6.12151 13.1108 5.25005 14.3166 5.25005 15.75C5.25005 17.1834 6.12151 18.3892 7.34138 19.2025C8.5665 20.0192 10.2158 20.5 12 20.5C13.7843 20.5 15.4336 20.0192 16.6587 19.2025C17.8786 18.3892 18.75 17.1834 18.75 15.75C18.75 14.3166 17.8786 13.1108 16.6587 12.2975C15.4336 11.4808 13.7843 11 12 11Z" fill="currentColor"/>
<path d="M17.0787 8.39359C17.2054 8.41976 17.3231 8.43923 17.4281 8.45381C17.5909 8.47642 17.7279 8.48792 17.8265 8.49379C17.876 8.49674 17.899 8.49792 17.9455 8.4991C17.9668 8.49964 18 8.5 18 8.5C19.9372 8.5 21.75 7.16715 21.75 5.25C21.75 3.33285 20.0036 2 18.0664 2L17.9455 2.0009C17.9162 2.00171 17.876 2.00326 17.8265 2.00621C17.7708 2.00952 17.7029 2.01463 17.6251 2.02252C18.0254 2.84672 18.25 3.77214 18.25 4.75C18.25 6.10962 17.8159 7.36784 17.0787 8.39359Z" fill="currentColor"/>
<path d="M6.32201 8.45381C6.42695 8.43923 6.54469 8.41976 6.67143 8.39359C5.93422 7.36784 5.50008 6.10962 5.50008 4.75C5.50008 3.77214 5.72465 2.84672 6.12503 2.02252C6.04716 2.01463 5.97925 2.00952 5.92355 2.00621C5.8741 2.00326 5.83394 2.00171 5.8046 2.0009L5.68367 2C3.74645 2 2.00008 3.33285 2.00008 5.25C2.00008 7.16715 3.81286 8.5 5.75008 8.5C5.75008 8.5 5.78331 8.49964 5.8046 8.4991C5.85108 8.49792 5.8741 8.49674 5.92355 8.49379C6.02221 8.48792 6.15918 8.47642 6.32201 8.45381Z" fill="currentColor"/>
<path d="M19.3617 18.6146C19.4249 18.6093 19.4852 18.6031 19.5419 18.5963C19.7327 18.5736 19.8925 18.544 20.0069 18.5195C20.0642 18.5072 20.1106 18.4961 20.1443 18.4876L20.1795 18.4784C21.1339 18.2667 21.9936 17.8872 22.6329 17.3641C23.2758 16.838 23.7501 16.1148 23.7501 15.25C23.7501 14.3852 23.2758 13.662 22.6329 13.1359C21.9936 12.6128 21.1339 12.2333 20.1795 12.0216L20.1443 12.0124C20.1106 12.0039 20.0642 11.9928 20.0069 11.9805C19.8925 11.956 19.7327 11.9264 19.5419 11.9037C19.2681 11.8711 18.913 11.8505 18.5284 11.8875C19.5238 12.8603 20.2501 14.1694 20.2501 15.75C20.2501 16.8414 19.9038 17.8034 19.3617 18.6146Z" fill="currentColor"/>
<path d="M4.20822 18.5963C4.26494 18.6031 4.32515 18.6093 4.3884 18.6146C3.84631 17.8034 3.5 16.8414 3.5 15.75C3.5 14.1694 4.2263 12.8603 5.22173 11.8875C4.83705 11.8505 4.48198 11.8711 4.20822 11.9037C4.01743 11.9264 3.85759 11.956 3.74324 11.9805C3.68589 11.9928 3.63948 12.0039 3.60578 12.0124L3.57055 12.0216C2.61618 12.2333 1.75651 12.6128 1.11719 13.1359C0.474248 13.662 0 14.3852 0 15.25C0 16.1148 0.474248 16.838 1.11719 17.3641C1.75651 17.8872 2.61617 18.2667 3.57055 18.4784L3.60578 18.4876C3.63948 18.4961 3.68589 18.5072 3.74324 18.5195C3.85759 18.544 4.01743 18.5736 4.20822 18.5963Z" fill="currentColor"/>
</g>
</svg>
