<svg style="display: block;" viewBox="0 0 22 18" fill="none" xmlns="http://www.w3.org/2000/svg">
<path fill-rule="evenodd" clip-rule="evenodd" d="M3 0C1.34315 0 0 1.34315 0 3V15C0 16.6569 1.34315 18 3 18H19C20.6569 18 22 16.6569 22 15V3C22 1.34315 20.6569 0 19 0H3ZM2.4 3.2C2.06863 2.95 1.55228 2.84853 1.5 3.5C1.5 3.5 1.5 5.0625 1.5 6.4L9.83205 11.5547C10.5444 11.9952 11.4556 11.9952 12.1679 11.5547L20.5 6.4C20.5 5.0625 20.5 3.5 20.5 3.5C20.4477 2.84853 19.9314 2.95 19.6 3.2L11.6 9.2C11.2444 9.46667 10.7556 9.46667 10.4 9.2L2.4 3.2Z" fill="currentColor"/>
</svg>
