<svg style="display: block;" viewBox="0 0 21.5 21.5" fill="none" xmlns="http://www.w3.org/2000/svg">
<path id="Subtract" fill-rule="evenodd" clip-rule="evenodd" d="M8.27381 0.745945C9.10968 0.276884 9.88394 0 10.75 0C11.6161 0 12.3903 0.276884 13.2262 0.745945C14.0361 1.20043 14.9641 1.87145 16.1311 2.71522L17.6402 3.80633C18.5767 4.48347 19.3247 5.0243 19.8889 5.52487C20.4715 6.04173 20.9073 6.557 21.1837 7.20513C21.4608 7.85469 21.5278 8.52045 21.4906 9.28808C21.4547 10.0289 21.3174 10.9226 21.1461 12.0371L20.8308 14.0887C20.5874 15.6725 20.3937 16.9337 20.109 17.9162C19.8146 18.9321 19.3999 19.7387 18.6586 20.3552C17.9204 20.9692 17.0411 21.2426 15.9669 21.3731C14.922 21.5 13.6039 21.5 11.9389 21.5H9.5611C7.89615 21.5 6.578 21.5 5.53306 21.3731C4.4589 21.2426 3.57957 20.9692 2.8414 20.3552C2.10016 19.7387 1.68544 18.9321 1.39105 17.9162C1.10635 16.9336 0.912556 15.6725 0.669183 14.0887L0.353927 12.0372C0.182639 10.9227 0.0452787 10.0289 0.00941281 9.28808C-0.0277516 8.52045 0.0392537 7.85469 0.316298 7.20513C0.592739 6.557 1.02855 6.04173 1.61109 5.52487C2.17528 5.02429 2.9233 4.48346 3.85984 3.80632L5.36887 2.71524C6.53586 1.87145 7.4639 1.20043 8.27381 0.745945ZM8.75 16C8.33579 16 8 16.3358 8 16.75C8 17.1642 8.33579 17.5 8.75 17.5H12.75C13.1642 17.5 13.5 17.1642 13.5 16.75C13.5 16.3358 13.1642 16 12.75 16H8.75Z" fill="currentColor"/>
</svg>
