<svg style="display: block;" viewBox="0 0 20.7498 20" fill="none" xmlns="http://www.w3.org/2000/svg">
<g id="Vector">
<path fill-rule="evenodd" clip-rule="evenodd" d="M6.24977 10C6.24977 9.58579 6.58556 9.25 6.99977 9.25L17.9723 9.25L16.0117 7.56944C15.6972 7.29988 15.6608 6.8264 15.9303 6.51191C16.1999 6.19741 16.6734 6.16099 16.9879 6.43056L20.4879 9.43056C20.6541 9.57304 20.7498 9.78106 20.7498 10C20.7498 10.2189 20.6541 10.427 20.4879 10.5694L16.9879 13.5694C16.6734 13.839 16.1999 13.8026 15.9303 13.4881C15.6608 13.1736 15.6972 12.7001 16.0117 12.4306L17.9723 10.75H6.99977C6.58556 10.75 6.24977 10.4142 6.24977 10Z" fill="#50555C"/>
<path d="M12.9998 6C12.9998 6.70219 12.9998 7.05329 12.8313 7.3055C12.7583 7.41471 12.6645 7.50848 12.5553 7.58145C12.3031 7.74996 11.952 7.74996 11.2498 7.74996L6.99978 7.74996C5.75713 7.74996 4.74977 8.75732 4.74977 9.99996C4.74977 11.2426 5.75713 12.25 6.99977 12.25L11.2497 12.25C11.952 12.25 12.3031 12.25 12.5554 12.4185C12.6645 12.4915 12.7583 12.5852 12.8312 12.6944C12.9998 12.9466 12.9998 13.2977 12.9998 14C12.9998 16.8284 12.9998 18.2426 12.1211 19.1213C11.2424 20 9.82842 20 7 20H6C3.17157 20 1.75736 20 0.878681 19.1213C1.72853e-06 18.2426 -1.23543e-07 16.8284 0 14L3.49784e-07 6C4.73418e-07 3.17158 5.36441e-07 1.75736 0.878678 0.878679C1.75736 -1.78814e-07 3.17157 -1.23542e-07 6 0L7 4.38041e-08C9.82842 1.67439e-07 11.2424 1.78814e-07 12.1211 0.87868C12.9998 1.75736 12.9998 3.17157 12.9998 6Z" fill="#50555C"/>
</g>
</svg>
