<svg style="display: block;" viewBox="0 0 20.17 21.5" fill="none" xmlns="http://www.w3.org/2000/svg">
<path id="Subtract" fill-rule="evenodd" clip-rule="evenodd" d="M2.335 7.75C2.335 3.46979 5.80479 0 10.085 0C14.3652 0 17.835 3.46979 17.835 7.75V8.4541C17.835 9.15103 18.0413 9.83235 18.4279 10.4122L19.5765 12.1351C20.9096 14.1348 19.8919 16.8528 17.5733 17.4851C16.8177 17.6912 16.0557 17.8655 15.2893 18.0081L15.2874 18.0132C14.5184 20.0651 12.4631 21.5 10.0851 21.5C7.70707 21.5 5.65175 20.0651 4.88276 18.0132L4.88087 18.0081C4.11442 17.8655 3.35238 17.6912 2.59673 17.4851C0.278136 16.8528 -0.739571 14.1348 0.593525 12.1351L1.74213 10.4122C2.12871 9.83235 2.335 9.15103 2.335 8.4541V7.75ZM6.70858 18.287C7.41954 19.3085 8.6561 20 10.0851 20C11.514 20 12.7506 19.3085 13.4615 18.287C11.2186 18.5549 8.95154 18.5549 6.70858 18.287ZM10.835 4.75C10.835 4.33579 10.4992 4 10.085 4C9.67075 4 9.33496 4.33579 9.33496 4.75V8.75C9.33496 9.16421 9.67075 9.5 10.085 9.5C10.4992 9.5 10.835 9.16421 10.835 8.75V4.75Z" fill="currentColor"/>
</svg>
