<svg style="display: block;" viewBox="0 0 20.5 19.5" fill="none" xmlns="http://www.w3.org/2000/svg">
<g id="Subtract">
<path fill-rule="evenodd" clip-rule="evenodd" d="M0.911225 0.0390651C0.555404 -0.0861248 0.165005 0.0995282 0.0392434 0.453733C-0.0865178 0.807937 0.0999824 1.19656 0.455803 1.32175L0.718843 1.4143C1.38956 1.65028 1.83598 1.80853 2.16568 1.97042C2.47731 2.12344 2.62387 2.25182 2.72235 2.39603C2.82302 2.54345 2.89569 2.74034 2.93607 3.11364C2.97808 3.50202 2.979 4.00608 2.979 4.75002V7.49272C2.979 8.95841 2.99295 10.0066 3.1296 10.805C3.2746 11.6522 3.56252 12.2542 4.10136 12.8229C4.68377 13.4377 5.4241 13.7085 6.31863 13.8354C7.17804 13.9574 8.27144 13.9574 9.63059 13.9574H15.066C15.8159 13.9574 16.4407 13.9574 16.945 13.8956C17.4777 13.8304 17.9552 13.6888 18.3703 13.3503C18.785 13.0121 19.0193 12.5737 19.1903 12.066C19.3523 11.5848 19.4783 10.973 19.6297 10.2376L20.1415 7.75305L20.1519 7.70082C20.3185 6.86568 20.4571 6.17075 20.4915 5.61383C20.5274 5.03171 20.4602 4.47175 20.092 3.99272C19.8677 3.70088 19.5497 3.53273 19.2533 3.42851C18.9516 3.32244 18.6084 3.2604 18.2587 3.22128C17.5706 3.14431 16.7333 3.14432 15.907 3.14433L4.31126 3.14433C4.30649 3.08394 4.30106 3.02517 4.29487 2.96799C4.24154 2.4749 4.12679 2.03275 3.8526 1.63123C3.57623 1.2265 3.20769 0.965118 2.77025 0.750327C2.35906 0.54842 1.83515 0.364112 1.21159 0.144744L0.911225 0.0390651ZM7.06124 6.34897C6.68385 6.34897 6.37791 6.65352 6.37791 7.0292C6.37791 7.40487 6.68385 7.70942 7.06124 7.70942H9.79455C10.1719 7.70942 10.4779 7.40487 10.4779 7.0292C10.4779 6.65352 10.1719 6.34897 9.79455 6.34897H7.06124Z" fill="currentColor"/>
<path fill-rule="evenodd" clip-rule="evenodd" d="M6.22206 15.1163C5.00704 15.1163 4.02822 16.101 4.02822 17.3081C4.02822 18.5152 5.00704 19.4999 6.22206 19.4999C7.43709 19.4999 8.41591 18.5152 8.41591 17.3081C8.41591 16.101 7.43709 15.1163 6.22206 15.1163ZM5.39488 17.3081C5.39488 16.8455 5.76862 16.4767 6.22206 16.4767C6.67551 16.4767 7.04925 16.8455 7.04925 17.3081C7.04925 17.7706 6.67551 18.1395 6.22206 18.1395C5.76862 18.1395 5.39488 17.7706 5.39488 17.3081Z" fill="currentColor"/>
<path fill-rule="evenodd" clip-rule="evenodd" d="M13.0913 17.3082C13.0913 16.101 14.0701 15.1163 15.2851 15.1163C16.5002 15.1163 17.479 16.101 17.479 17.3082C17.479 18.5153 16.5002 19.5 15.2851 19.5C14.0701 19.5 13.0913 18.5153 13.0913 17.3082ZM15.2851 16.4768C14.8317 16.4768 14.458 16.8456 14.458 17.3082C14.458 17.7707 14.8317 18.1396 15.2851 18.1396C15.7386 18.1396 16.1123 17.7707 16.1123 17.3082C16.1123 16.8456 15.7386 16.4768 15.2851 16.4768Z" fill="currentColor"/>
</g>
</svg>
