<svg style="display: block;" viewBox="0 0 20 20" fill="none" xmlns="http://www.w3.org/2000/svg">
<path id="Vector" fill-rule="evenodd" clip-rule="evenodd" d="M1.46447 1.46447C0 2.92893 0 5.28595 0 10C0 14.714 0 17.0711 1.46447 18.5355C2.92893 20 5.28595 20 10 20C14.714 20 17.0711 20 18.5355 18.5355C20 17.0711 20 14.714 20 10C20 5.28595 20 2.92893 18.5355 1.46447C17.0711 0 14.714 0 10 0C5.28595 0 2.92893 0 1.46447 1.46447ZM15 6.25C15.4142 6.25 15.75 6.58579 15.75 7V16C15.75 16.4142 15.4142 16.75 15 16.75C14.5858 16.75 14.25 16.4142 14.25 16V7C14.25 6.58579 14.5858 6.25 15 6.25ZM10.75 10C10.75 9.58579 10.4142 9.25 10 9.25C9.58579 9.25 9.25 9.58579 9.25 10V16C9.25 16.4142 9.58579 16.75 10 16.75C10.4142 16.75 10.75 16.4142 10.75 16V10ZM5 12.25C5.41421 12.25 5.75 12.5858 5.75 13V16C5.75 16.4142 5.41421 16.75 5 16.75C4.58579 16.75 4.25 16.4142 4.25 16V13C4.25 12.5858 4.58579 12.25 5 12.25Z" fill="currentColor"/>
</svg>
