<svg style="display: block;" viewBox="0 0 22 21" fill="none" xmlns="http://www.w3.org/2000/svg">
<path fill-rule="evenodd" clip-rule="evenodd" d="M11 0C11.3788 0 11.7244 0.214035 11.8932 0.552922L14.5982 5.97604L20.6228 6.84952C20.998 6.90391 21.3091 7.16646 21.4256 7.52573C21.5421 7.885 21.4429 8.27936 21.1701 8.54094L16.8064 12.7269L17.8362 18.6889C17.9006 19.0617 17.7459 19.4396 17.4387 19.6614C17.1315 19.8832 16.7244 19.9094 16.3911 19.7287L11 16.8056L5.60892 19.7287C5.27559 19.9094 4.86849 19.8832 4.56131 19.6614C4.25412 19.4396 4.09943 19.0617 4.16382 18.6889L5.19365 12.7269L0.829868 8.54094C0.557148 8.27936 0.457952 7.885 0.574442 7.52573C0.690932 7.16646 1.0021 6.90391 1.37725 6.84952L7.40183 5.97604L10.1068 0.552922C10.2756 0.214035 10.6213 0 11 0Z" fill="currentColor"/>
</svg>
