<svg style="display: block;" viewBox="0 0 24 24" fill="none" xmlns="http://www.w3.org/2000/svg">
<path fill-rule="evenodd" clip-rule="evenodd" d="M14.279 2.152C13.909 2 13.439 2 12.5 2c-.939 0-1.409 0-1.779.152a2 2 0 0 0-1.082 1.082c-.067.165-.097.354-.106.625a1.681 1.681 0 0 1-2.461.987c-.234-.124-.4-.232-.564-.265a2 2 0 0 0-1.531.297c-.31.21-.535.595-.985 1.366-.45.776-.675 1.164-.713 1.586a2 2 0 0 0 .335 1.45c.144.215.39.426.6.601a1.681 1.681 0 0 1 0 2.633c-.21.176-.456.385-.6.601a2 2 0 0 0-.335 1.45c.038.422.263.81.713 1.586.45.77.675 1.156.985 1.366a2 2 0 0 0 1.531.297c.165-.033.33-.14.564-.265a1.681 1.681 0 0 1 2.46.987c.01.27.04.46.107.625a2 2 0 0 0 1.082 1.082c.37.152.84.152 1.779.152.94 0 1.41 0 1.78-.152a2 2 0 0 0 1.08-1.082c.068-.165.098-.354.108-.625a1.681 1.681 0 0 1 2.46-.987c.234.124.4.232.564.265a2 2 0 0 0 1.532-.297c.31-.21.534-.595.984-1.366.45-.776.675-1.164.713-1.586a2 2 0 0 0-.335-1.45c-.144-.215-.39-.426-.6-.601a1.681 1.681 0 0 1 0-2.633c.21-.176.456-.385.6-.601a2 2 0 0 0 .335-1.45c-.038-.422-.263-.81-.713-1.586-.45-.77-.675-1.156-.985-1.366a2 2 0 0 0-1.531-.297c-.165.033-.33.14-.564.265a1.681 1.681 0 0 1-2.46-.987c-.01-.27-.04-.46-.107-.625a2 2 0 0 0-1.082-1.082zM12.5 15a3 3 0 1 0 0-6 3 3 0 0 0 0 6z" fill="currentColor"/>
</svg>
