<svg style="display: block;" viewBox="0 0 20 20" fill="none" xmlns="http://www.w3.org/2000/svg">
<path fill-rule="evenodd" clip-rule="evenodd" d="M8.34 1.804A1 1 0 0 1 9.32 1h1.36a1 1 0 0 1 .98.804l.292 1.46a6 6 0 0 1 1.586.917l1.422-.469a1 1 0 0 1 1.18.438l.68 1.179a1 1 0 0 1-.204 1.252l-1.13.99a6 6 0 0 1 0 1.832l1.13.99a1 1 0 0 1 .204 1.251l-.68 1.18a1 1 0 0 1-1.18.437l-1.422-.469a6 6 0 0 1-1.586.917L11.66 18.196a1 1 0 0 1-.98.804H9.32a1 1 0 0 1-.98-.804l-.292-1.46a6 6 0 0 1-1.586-.917l-1.422.469a1 1 0 0 1-1.18-.438l-.68-1.18a1 1 0 0 1 .204-1.25l1.13-.99a6 6 0 0 1 0-1.833l-1.13-.99a1 1 0 0 1-.204-1.25l.68-1.18a1 1 0 0 1 1.18-.438l1.422.47a6 6 0 0 1 1.586-.917L8.34 1.804ZM10 13a3 3 0 1 0 0-6 3 3 0 0 0 0 6Z" fill="currentColor"/>
</svg>
