<svg width="100" height="100" viewBox="0 0 100 100" fill="none" xmlns="http://www.w3.org/2000/svg">
<path d="M4.16675 8.33301L5.36968 8.75817C11.3639 10.8767 14.361 11.936 16.0752 14.4579C17.7895 16.9797 17.7895 20.3295 17.7895 27.029V39.6291C17.7895 53.2473 18.0807 57.7417 22.0707 61.9723C26.0607 66.203 32.4825 66.203 45.3262 66.203H69.7474C76.9363 66.203 80.5307 66.203 83.0715 64.1215C85.6124 62.04 86.338 58.501 87.7892 51.4228L90.0907 40.1974C91.6892 32.1462 92.4885 28.1207 90.4441 25.449C88.3996 22.7774 81.4144 22.7774 73.6548 22.7774H17.7895M45.8334 37.4997H33.3334M70.9431 77.7775C74.7582 77.7775 77.851 80.8867 77.851 84.7219C77.851 88.5572 74.7582 91.6663 70.9431 91.6663C67.1279 91.6663 64.0352 88.5572 64.0352 84.7219C64.0352 80.8867 67.1279 77.7775 70.9431 77.7775ZM29.4957 77.7772C33.3108 77.7772 36.4036 80.8863 36.4036 84.7216C36.4036 88.5569 33.3108 91.666 29.4957 91.666C25.6806 91.666 22.5878 88.5569 22.5878 84.7216C22.5878 80.8863 25.6806 77.7772 29.4957 77.7772Z" stroke="#E5B8F4" stroke-width="3.4" stroke-linecap="round" stroke-linejoin="round"/>
</svg>
