<svg width="24" height="24" viewBox="0 0 24 24" fill="none" xmlns="http://www.w3.org/2000/svg">
<path d="M10.5 10.4999H12.5V17.5M12.5 17.5L15 17.4999M12.5 17.5H10M11.99 6.5H12M22 12C22 17.5228 17.5228 22 12 22C6.47715 22 2 17.5228 2 12C2 6.47715 6.47715 2 12 2C17.5228 2 22 6.47715 22 12ZM12.49 6.5C12.49 6.77614 12.2661 7 11.99 7C11.7139 7 11.49 6.77614 11.49 6.5C11.49 6.22386 11.7139 6 11.99 6C12.2661 6 12.49 6.22386 12.49 6.5Z" stroke="white" stroke-opacity="0.6" stroke-width="1.5" stroke-linecap="round" stroke-linejoin="round"/>
</svg>
