<svg width="24" height="24" viewBox="0 0 24 24" fill="none" xmlns="http://www.w3.org/2000/svg">
<path d="M9 13C9 13 10 13 11 15C11 15 14.1765 10 17 9M4.73371 4.7549C7.04018 4.01899 8.99043 2 11.9982 2C15.0061 2 16.9585 4.01915 19.2659 4.75499C20.2037 5.05405 20.6726 5.20358 20.8624 5.41449C21.0522 5.6254 21.1078 5.93364 21.219 6.55013C22.4086 13.146 19.8116 19.2439 13.6126 21.6175C12.9466 21.8725 12.6135 22 12.0015 22C11.3894 22 11.0564 21.8725 10.3903 21.6175C4.1909 19.244 1.59143 13.146 2.78072 6.55013C2.89186 5.93375 2.94743 5.62556 3.1372 5.41465C3.32697 5.20374 3.79589 5.05413 4.73371 4.7549Z" stroke="white" stroke-opacity="0.6" stroke-width="1.5" stroke-linecap="round" stroke-linejoin="round"/>
</svg>
