<svg width="24" height="24" viewBox="0 0 24 24" fill="none" xmlns="http://www.w3.org/2000/svg">
<path d="M12 1.25C9.37669 1.25 7.25005 3.37665 7.25005 6C7.25005 8.62335 9.37669 10.75 12 10.75C14.6234 10.75 16.75 8.62335 16.75 6C16.75 3.37665 14.6234 1.25 12 1.25Z" fill="#FA8905"/>
<path d="M12 12.25C10.2158 12.25 8.5665 12.7308 7.34138 13.5475C6.12151 14.3608 5.25005 15.5666 5.25005 17C5.25005 18.4334 6.12151 19.6392 7.34138 20.4525C8.5665 21.2692 10.2158 21.75 12 21.75C13.7843 21.75 15.4336 21.2692 16.6587 20.4525C17.8786 19.6392 18.75 18.4334 18.75 17C18.75 15.5666 17.8786 14.3608 16.6587 13.5475C15.4336 12.7308 13.7843 12.25 12 12.25Z" fill="#FA8905"/>
<path d="M17.0787 9.64359C17.2054 9.66976 17.3231 9.68923 17.4281 9.70381C17.5909 9.72642 17.7279 9.73792 17.8265 9.74379C17.876 9.74674 17.899 9.74792 17.9455 9.7491C17.9668 9.74964 18 9.75 18 9.75C19.9372 9.75 21.75 8.41715 21.75 6.5C21.75 4.58285 20.0036 3.25 18.0664 3.25L17.9455 3.2509C17.9162 3.25171 17.876 3.25326 17.8265 3.25621C17.7708 3.25952 17.7029 3.26463 17.6251 3.27252C18.0254 4.09672 18.25 5.02214 18.25 6C18.25 7.35962 17.8159 8.61784 17.0787 9.64359Z" fill="#FA8905"/>
<path d="M6.32201 9.70381C6.42695 9.68923 6.54469 9.66976 6.67143 9.64359C5.93422 8.61784 5.50008 7.35962 5.50008 6C5.50008 5.02214 5.72465 4.09672 6.12503 3.27252C6.04716 3.26463 5.97925 3.25952 5.92355 3.25621C5.8741 3.25326 5.83394 3.25171 5.8046 3.2509L5.68367 3.25C3.74645 3.25 2.00008 4.58285 2.00008 6.5C2.00008 8.41715 3.81286 9.75 5.75008 9.75C5.75008 9.75 5.78331 9.74964 5.8046 9.7491C5.85108 9.74792 5.8741 9.74674 5.92355 9.74379C6.02221 9.73792 6.15918 9.72642 6.32201 9.70381Z" fill="#FA8905"/>
<path d="M19.3617 19.8646C19.4249 19.8593 19.4852 19.8531 19.5419 19.8463C19.7327 19.8236 19.8925 19.794 20.0069 19.7695C20.0642 19.7572 20.1106 19.7461 20.1443 19.7376L20.1795 19.7284C21.1339 19.5167 21.9936 19.1372 22.6329 18.6141C23.2758 18.088 23.7501 17.3648 23.7501 16.5C23.7501 15.6352 23.2758 14.912 22.6329 14.3859C21.9936 13.8628 21.1339 13.4833 20.1795 13.2716L20.1443 13.2624C20.1106 13.2539 20.0642 13.2428 20.0069 13.2305C19.8925 13.206 19.7327 13.1764 19.5419 13.1537C19.2681 13.1211 18.913 13.1005 18.5284 13.1375C19.5238 14.1103 20.2501 15.4194 20.2501 17C20.2501 18.0914 19.9038 19.0534 19.3617 19.8646Z" fill="#FA8905"/>
<path d="M4.20822 19.8463C4.26494 19.8531 4.32515 19.8593 4.3884 19.8646C3.84631 19.0534 3.5 18.0914 3.5 17C3.5 15.4194 4.2263 14.1103 5.22173 13.1375C4.83705 13.1005 4.48198 13.1211 4.20822 13.1537C4.01743 13.1764 3.85759 13.206 3.74324 13.2305C3.68589 13.2428 3.63948 13.2539 3.60578 13.2624L3.57055 13.2716C2.61618 13.4833 1.75651 13.8628 1.11719 14.3859C0.474248 14.912 0 15.6352 0 16.5C0 17.3648 0.474248 18.088 1.11719 18.6141C1.75651 19.1372 2.61617 19.5167 3.57055 19.7284L3.60578 19.7376C3.63948 19.7461 3.68589 19.7572 3.74324 19.7695C3.85759 19.794 4.01743 19.8236 4.20822 19.8463Z" fill="#FA8905"/>
</svg>
